<svg width="111" height="39" viewBox="0 0 111 39" fill="none" xmlns="http://www.w3.org/2000/svg">
    <g clip-path="url(#clip0_154_970)">
        <path d="M50.8384 2.92529H45.3265C44.355 2.92529 43.5674 3.71111 43.5674 4.68047V9.24393C43.5674 10.2133 44.355 10.9991 45.3265 10.9991H50.8384C51.8099 10.9991 52.5975 10.2133 52.5975 9.24393V4.68047C52.5975 3.71111 51.8099 2.92529 50.8384 2.92529Z" fill="#767F89"/>
        <path d="M74.841 8.29847C76.2881 9.664 75.7791 10.9991 74.3519 10.9991H60.1617C59.1907 10.9991 58.344 10.1543 58.344 9.18542V4.62196C58.344 3.65311 59.1907 2.92529 60.1617 2.92529H66.4359C67.9605 2.92529 68.9374 3.20378 70.6191 4.66643L74.841 8.29847Z" fill="#767F89"/>
        <path d="M62.0381 6.90387C61.8927 6.90387 61.7473 6.84419 61.6429 6.72718C61.4494 6.50954 61.4693 6.17723 61.6863 5.98416L67.1501 1.1387C67.3682 0.945634 67.7013 0.965526 67.8948 1.182C68.0883 1.39964 68.0684 1.73195 67.8514 1.92502L62.3876 6.77048C62.2867 6.85941 62.1624 6.90387 62.0369 6.90387H62.0381Z" fill="#A8AEB4"/>
        <path d="M69.7781 9.82883C69.6327 9.82883 69.4873 9.76916 69.3829 9.65214C69.1894 9.4345 69.2093 9.10219 69.4263 8.90912L73.2483 5.4678C73.4664 5.27474 73.7994 5.29463 73.9929 5.5111C74.1864 5.72874 74.1665 6.06105 73.9496 6.25412L70.1276 9.69544C70.0267 9.78437 69.9024 9.82883 69.7769 9.82883H69.7781Z" fill="#A8AEB4"/>
        <path d="M57.3001 15.9828C57.1547 15.9828 57.0092 15.9231 56.9049 15.8061C56.7114 15.5884 56.7313 15.2561 56.9483 15.0631L66.4475 6.63821C66.6656 6.44515 66.9987 6.46504 67.1922 6.68151C67.3857 6.89915 67.3657 7.23146 67.1488 7.42453L57.6496 15.8494C57.5487 15.9383 57.4244 15.9828 57.2989 15.9828H57.3001Z" fill="#A8AEB4"/>
        <path d="M46.0887 6.31842C45.9432 6.31842 45.7978 6.25874 45.6934 6.14173C45.4999 5.92409 45.5199 5.59178 45.7368 5.39871L51.2006 0.553254C51.4188 0.360185 51.7518 0.380077 51.9453 0.596548C52.1388 0.81419 52.1189 1.1465 51.9019 1.33957L46.4381 6.18503C46.3373 6.27396 46.213 6.31842 46.0875 6.31842H46.0887Z" fill="#A8AEB4"/>
        <path d="M40.9991 15.9828C40.8536 15.9828 40.7082 15.9231 40.6038 15.8061C40.4103 15.5884 40.4303 15.2561 40.6472 15.0631L50.1464 6.63821C50.3646 6.44515 50.6976 6.46504 50.8911 6.68151C51.0846 6.89915 51.0647 7.23146 50.8477 7.42453L41.3485 15.8494C41.2477 15.9383 41.1234 15.9828 40.9979 15.9828H40.9991Z" fill="#A8AEB4"/>
        <path d="M21.0859 37.21H0.527734C0.235721 37.21 0 37.4452 0 37.7365C0 38.0279 0.235721 38.2631 0.527734 38.2631H23.6225C22.7137 38.0454 21.8587 37.6874 21.0859 37.21Z" fill="#263544"/>
        <path d="M37.3518 37.21H30.2298C29.4557 37.6874 28.602 38.0454 27.6931 38.2631H37.353C37.645 38.2631 37.8807 38.0279 37.8807 37.7365C37.8807 37.4452 37.645 37.21 37.353 37.21H37.3518Z" fill="#263544"/>
        <path d="M34.1517 31.7231C35.2081 27.042 32.2612 22.3927 27.5696 21.3386C22.878 20.2845 18.2183 23.2248 17.1619 27.9059C16.1054 32.587 19.0523 37.2363 23.7439 38.2904C28.4355 39.3445 33.0952 36.4042 34.1517 31.7231Z" fill="#68727C"/>
        <path d="M30.7588 29.8156C30.7588 32.6262 28.4754 34.9056 25.6573 34.9056C22.8404 34.9056 20.5559 32.6262 20.5559 29.8156C20.5559 27.005 22.8392 24.7256 25.6573 24.7256C28.4743 24.7256 30.7588 27.0038 30.7588 29.8156Z" fill="#BDC2C7"/>
        <path d="M87.5803 37.21H73.0031C72.7111 37.21 72.4753 37.4452 72.4753 37.7365C72.4753 38.0279 72.7111 38.2631 73.0031 38.2631H90.1169C89.208 38.0454 88.3531 37.6874 87.5803 37.21Z" fill="#263544"/>
        <path d="M109.827 37.21H96.7241C95.9501 37.6874 95.0964 38.0454 94.1875 38.2631H109.828C110.12 38.2631 110.356 38.0279 110.356 37.7365C110.356 37.4452 110.12 37.21 109.828 37.21H109.827Z" fill="#263544"/>
        <path d="M100.643 31.7231C101.7 27.042 98.7529 22.3927 94.0613 21.3386C89.3697 20.2845 84.71 23.2248 83.6536 27.9059C82.5971 32.587 85.544 37.2363 90.2356 38.2904C94.9272 39.3445 99.5869 36.4042 100.643 31.7231Z" fill="#68727C"/>
        <path d="M97.0737 29.8156C97.0737 32.6262 94.7904 34.9056 91.9723 34.9056C89.1554 34.9056 86.8708 32.6262 86.8708 29.8156C86.8708 27.005 89.1542 24.7256 91.9723 24.7256C94.7892 24.7256 97.0737 27.0038 97.0737 29.8156Z" fill="#BDC2C7"/>
        <path d="M108.713 23.2852H108.612L108.009 14.9481C107.951 13.9922 107.209 13.3147 106.25 13.1789L82.4437 10.8013L71.8891 2.31439C70.8137 1.31979 69.4462 0.584961 66.7876 0.584961H42.6878C41.7168 0.584961 40.87 1.31277 40.87 2.28163V9.0098H5.16006C4.18903 9.0098 3.34231 9.73762 3.34231 10.7065V21.296H2.81458C1.84355 21.296 0.996826 22.0238 0.996826 22.9927V27.3221C0.996826 28.291 1.84355 29.1358 2.81458 29.1358H14.7355C14.7355 22.8172 19.4511 18.8587 25.2726 18.8587C31.0941 18.8587 36.6095 22.7002 36.6095 29.1358H81.1115C81.1455 23.5193 86.0605 19.1313 92.1189 19.1313C98.1772 19.1313 103.092 23.5193 103.126 29.1358H108.713C109.684 29.1358 110.414 28.291 110.414 27.3221V24.9819C110.414 24.013 109.684 23.2852 108.713 23.2852ZM52.5975 9.24383C52.5975 10.2127 51.8094 10.999 50.8383 10.999H45.3265C44.3554 10.999 43.5673 10.2127 43.5673 9.24383V4.68037C43.5673 3.71151 44.3554 2.92519 45.3265 2.92519H50.8383C51.8094 2.92519 52.5975 3.71151 52.5975 4.68037V9.24383ZM74.3518 10.999H60.1616C59.1906 10.999 58.3439 10.1542 58.3439 9.18532V4.62186C58.3439 3.65301 59.1906 2.92519 60.1616 2.92519H66.4358C67.9604 2.92519 68.9373 3.20368 70.619 4.66633L74.8409 8.29837C76.288 9.6639 75.779 10.999 74.3518 10.999Z" fill="#F26A21"/>
        <path d="M108.009 14.9481C107.951 13.9922 107.208 13.3147 106.25 13.1789L82.4437 10.8013L71.889 2.31439C70.8136 1.31979 69.4462 0.584961 66.7876 0.584961H42.6878C41.7167 0.584961 40.87 1.31277 40.87 2.28163V9.0098H5.16003C4.189 9.0098 3.34229 9.73762 3.34229 10.7065V17.5306C8.4871 18.4749 14.128 19.3057 20.1758 20.0066C21.6863 19.2589 23.4231 18.8587 25.2726 18.8587C27.9746 18.8587 30.6085 19.6871 32.6585 21.2165C43.368 22.066 55.0051 22.5328 67.1711 22.5328C72.9633 22.5328 78.6358 22.4275 84.1454 22.2251C86.1507 20.3096 88.9817 19.1325 92.12 19.1325C94.7856 19.1325 97.2285 19.982 99.133 21.4119C102.309 21.1814 105.408 20.9169 108.421 20.6209L108.011 14.9493L108.009 14.9481ZM52.5974 9.24383C52.5974 10.2127 51.8094 10.999 50.8383 10.999H45.3264C44.3554 10.999 43.5673 10.2127 43.5673 9.24383V4.68037C43.5673 3.71151 44.3554 2.9252 45.3264 2.9252H50.8383C51.8094 2.9252 52.5974 3.71151 52.5974 4.68037V9.24383ZM74.3518 10.999H60.1616C59.1906 10.999 58.3439 10.1542 58.3439 9.18532V4.62186C58.3439 3.65301 59.1906 2.9252 60.1616 2.9252H66.4358C67.9604 2.9252 68.9372 3.20368 70.6189 4.66633L74.8408 8.29837C76.288 9.6639 75.779 10.999 74.3518 10.999Z" fill="#F58C55"/>
        <path d="M108.42 23.0512H106.309V16.4985H108.068L108.42 23.0512Z" fill="white"/>
        <path d="M6.62588 13.9243H3.45947V20.711H6.62588V13.9243Z" fill="#FBD4BF"/>
        <path d="M80.9778 13.9245C80.9778 13.6331 80.7421 13.3979 80.4501 13.3979C80.1581 13.3979 79.9224 13.6331 79.9224 13.9245V21.5303C79.9224 21.5408 79.9224 21.5525 79.9224 21.563C79.9224 21.5747 79.9822 22.732 79.2563 23.4996C78.8036 23.9781 78.1199 24.2215 77.2239 24.2215H67.4901C67.1981 24.2215 66.9624 24.4567 66.9624 24.7481C66.9624 25.0394 67.1981 25.2746 67.4901 25.2746H77.2239C78.4271 25.2746 79.3724 24.9178 80.0326 24.2133C81.0177 23.1626 80.986 21.7163 80.9767 21.5162V13.9245H80.9778Z" fill="#263544"/>
        <path d="M53.184 9.18552V4.62206C53.184 3.36418 52.1578 2.34033 50.8971 2.34033H45.3852C44.1245 2.34033 43.0984 3.36418 43.0984 4.62206V9.18552C43.0984 10.4434 44.1245 11.4672 45.3852 11.4672H50.8971C52.1578 11.4672 53.184 10.4434 53.184 9.18552ZM44.1539 9.18552V4.62206C44.1539 3.94456 44.7062 3.39344 45.3852 3.39344H50.8971C51.5761 3.39344 52.1285 3.94456 52.1285 4.62206V9.18552C52.1285 9.86301 51.5761 10.4141 50.8971 10.4141H45.3852C44.7062 10.4141 44.1539 9.86301 44.1539 9.18552Z" fill="#263544"/>
        <path d="M60.1618 11.4672H74.352C75.2034 11.4672 75.866 11.0823 76.124 10.4375C76.4336 9.66058 76.0982 8.73151 75.2034 7.88669C75.1976 7.88084 75.1917 7.87616 75.1858 7.87147L70.9651 4.22539C69.1345 2.63169 68.0028 2.34033 66.436 2.34033H60.1618C58.9011 2.34033 57.875 3.36418 57.875 4.62206V9.18552C57.875 10.4434 58.9011 11.4672 60.1618 11.4672ZM58.9305 4.62206C58.9305 3.94456 59.4828 3.39344 60.1618 3.39344H66.436C67.7964 3.39344 68.6736 3.62863 70.2732 5.0199L74.4857 8.65896C75.1342 9.27445 75.2445 9.79047 75.1424 10.0479C75.051 10.2772 74.7554 10.4141 74.352 10.4141H60.1618C59.4828 10.4141 58.9305 9.86301 58.9305 9.18552V4.62206Z" fill="#263544"/>
        <path d="M62.214 13.3394H58.5785C58.2865 13.3394 58.0508 13.5745 58.0508 13.8659C58.0508 14.1573 58.2865 14.3925 58.5785 14.3925H62.214C62.506 14.3925 62.7417 14.1573 62.7417 13.8659C62.7417 13.5745 62.506 13.3394 62.214 13.3394Z" fill="#263544"/>
        <path d="M52.6563 13.8659C52.6563 13.5745 52.4206 13.3394 52.1286 13.3394H48.4931C48.2011 13.3394 47.9653 13.5745 47.9653 13.8659C47.9653 14.1573 48.2011 14.3925 48.4931 14.3925H52.1286C52.4206 14.3925 52.6563 14.1573 52.6563 13.8659Z" fill="#263544"/>
        <path d="M109.106 22.7342L108.536 14.8874C108.465 13.7231 107.576 12.821 106.324 12.6431C106.317 12.6431 106.309 12.6408 106.302 12.6408L82.6526 10.2865L72.234 1.88389C71.2219 0.950135 69.7806 0 66.7866 0H42.6867C41.426 0 40.3999 1.02385 40.3999 2.28173V8.42484H5.16016C3.89946 8.42484 2.87332 9.4487 2.87332 10.7066V20.7111H2.81468C1.55398 20.7111 0.527832 21.7349 0.527832 22.9928V27.3222C0.527832 28.5801 1.55398 29.604 2.81468 29.604H14.7356C15.0276 29.604 15.2633 29.3688 15.2633 29.0774C15.2633 23.4269 19.4723 19.3268 25.2727 19.3268C30.5125 19.3268 36.0818 22.7447 36.0818 29.0774C36.0818 29.3688 36.3176 29.604 36.6096 29.604H81.1116C81.4013 29.604 81.637 29.3699 81.6393 29.0809C81.6722 23.8528 86.3737 19.5995 92.119 19.5995C97.8642 19.5995 102.566 23.8528 102.599 29.0809C102.601 29.3699 102.837 29.604 103.126 29.604H108.713C109.974 29.604 111 28.5801 111 27.3222V24.982C111 23.8575 110.18 22.9203 109.106 22.7342ZM109.945 27.3222C109.945 27.9997 109.392 28.5509 108.713 28.5509H103.636C103.303 22.9881 98.2512 18.5464 92.119 18.5464C85.9867 18.5464 80.9333 22.9881 80.6015 28.5509H37.1244C36.986 25.6384 35.6984 23.0244 33.4643 21.1452C31.2947 19.321 28.3101 18.2737 25.2727 18.2737C22.2353 18.2737 19.4829 19.321 17.4599 21.2224C15.4826 23.0806 14.3439 25.6665 14.2196 28.5509H2.81468C2.13566 28.5509 1.5833 27.9997 1.5833 27.3222V22.9928C1.5833 22.3153 2.13566 21.7642 2.81468 21.7642H8.26793C8.55994 21.7642 8.79566 21.529 8.79566 21.2376C8.79566 20.9463 8.55994 20.7111 8.26793 20.7111H6.97791V13.7489C6.97791 13.4575 6.74219 13.2223 6.45018 13.2223H4.86698C4.57496 13.2223 4.33924 13.4575 4.33924 13.7489C4.33924 14.0402 4.57496 14.2754 4.86698 14.2754H5.92244V20.7111H3.92878V10.7066C3.92878 10.0291 4.48114 9.47795 5.16016 9.47795H40.9288C41.2208 9.47795 41.4565 9.24275 41.4565 8.9514V2.28173C41.4565 1.60423 42.0089 1.05311 42.6879 1.05311H54.943V21.0235C54.943 22.3282 54.7531 23.1086 54.3262 23.5568C53.8817 24.0237 53.0526 24.2413 51.718 24.2413C51.426 24.2413 51.1903 24.4765 51.1903 24.7679C51.1903 25.0592 51.426 25.2944 51.718 25.2944C54.8785 25.2944 55.9985 24.177 55.9985 21.0235V1.05311H66.7877C69.4217 1.05311 70.6238 1.82889 71.5303 2.66787C71.5385 2.67606 71.5479 2.68425 71.5573 2.69127L82.112 11.2039C82.1917 11.2682 82.289 11.308 82.3911 11.3185L106.186 13.6869C106.934 13.7969 107.442 14.293 107.483 14.9576L107.57 16.1476H106.485C106.193 16.1476 105.957 16.3828 105.957 16.6742V21.2961C105.957 21.5875 106.193 21.8227 106.485 21.8227C106.777 21.8227 107.013 21.5875 107.013 21.2961V17.2007H107.646L108.045 22.7003H105.488C105.196 22.7003 104.96 22.9355 104.96 23.2268C104.96 23.5182 105.196 23.7534 105.488 23.7534H108.713C109.392 23.7534 109.945 24.3045 109.945 24.982V27.3222Z" fill="#263544"/>
        <path d="M25.234 13.6706C22.2599 13.6706 19.4371 14.5459 17.0717 16.2016C14.7743 17.8093 13.0609 20.0957 12.247 22.6384C12.1579 22.9157 12.3115 23.2117 12.5894 23.3007C12.6434 23.3182 12.6973 23.3252 12.7501 23.3252C12.9741 23.3252 13.1805 23.1825 13.2532 22.959C14.8071 18.11 19.7338 14.7237 25.2351 14.7237C28.9691 14.7237 32.478 16.2425 34.861 18.8917C35.0557 19.1081 35.3899 19.1257 35.6068 18.9314C35.8238 18.7372 35.8414 18.4037 35.6467 18.1873C33.0632 15.317 29.2682 13.6694 25.2351 13.6694L25.234 13.6706Z" fill="#263544"/>
        <path d="M92.3147 15.4258C88.746 15.4258 85.3779 16.6989 82.8307 19.0122C82.6149 19.2076 82.5997 19.5411 82.7956 19.7564C82.9914 19.9717 83.3256 19.9869 83.5414 19.7915C85.8939 17.656 89.0099 16.4801 92.3147 16.4801C96.4064 16.4801 100.245 18.3288 102.582 21.425C102.685 21.5619 102.844 21.6344 103.004 21.6344C103.114 21.6344 103.226 21.6005 103.321 21.5279C103.554 21.3524 103.6 21.0224 103.425 20.7908C100.89 17.4314 96.7359 15.4258 92.3147 15.4258Z" fill="#263544"/>
        <path d="M25.4813 20.6362C20.4069 20.6362 16.2788 24.755 16.2788 29.8181C16.2788 34.8812 20.4069 39 25.4813 39C30.5558 39 34.6838 34.8812 34.6838 29.8181C34.6838 24.755 30.5558 20.6362 25.4813 20.6362ZM25.4813 37.9469C20.9885 37.9469 17.3343 34.3009 17.3343 29.8181C17.3343 25.3354 20.9885 21.6893 25.4813 21.6893C29.9741 21.6893 33.6283 25.3354 33.6283 29.8181C33.6283 34.3009 29.9741 37.9469 25.4813 37.9469Z" fill="#263544"/>
        <path d="M25.4815 24.458C22.5191 24.458 20.1091 26.8626 20.1091 29.8183C20.1091 32.774 22.5191 35.1786 25.4815 35.1786C28.4438 35.1786 30.8538 32.774 30.8538 29.8183C30.8538 26.8626 28.4438 24.458 25.4815 24.458ZM25.4815 34.1243C23.102 34.1243 21.1646 32.1925 21.1646 29.8171C21.1646 27.4418 23.1008 25.5099 25.4815 25.5099C27.8621 25.5099 29.7983 27.4418 29.7983 29.8171C29.7983 32.1925 27.8621 34.1243 25.4815 34.1243Z" fill="#263544"/>
        <path d="M25.4486 30.9214C25.1566 30.9214 24.9209 31.1566 24.9209 31.4479V32.81C24.9209 33.1013 25.1566 33.3365 25.4486 33.3365C25.7406 33.3365 25.9764 33.1013 25.9764 32.81V31.4479C25.9764 31.1566 25.7406 30.9214 25.4486 30.9214Z" fill="#263544"/>
        <path d="M27.0176 30.5871C26.8112 30.3811 26.477 30.3811 26.2717 30.5871C26.0653 30.793 26.0653 31.1265 26.2717 31.3313L27.2369 32.2943C27.3401 32.3972 27.475 32.4487 27.6098 32.4487C27.7447 32.4487 27.8796 32.3972 27.9828 32.2943C28.1892 32.0883 28.1892 31.7549 27.9828 31.5501L27.0176 30.5871Z" fill="#263544"/>
        <path d="M27.1198 29.2529C26.8278 29.2529 26.592 29.4881 26.592 29.7795C26.592 30.0708 26.8278 30.306 27.1198 30.306H28.4848C28.7769 30.306 29.0126 30.0708 29.0126 29.7795C29.0126 29.4881 28.7769 29.2529 28.4848 29.2529H27.1198Z" fill="#263544"/>
        <path d="M26.6295 29.1567C26.7644 29.1567 26.8993 29.1053 27.0025 29.0023L27.9676 28.0393C28.174 27.8333 28.174 27.4999 27.9676 27.2951C27.7612 27.0891 27.427 27.0891 27.2218 27.2951L26.2566 28.2581C26.0502 28.464 26.0502 28.7975 26.2566 29.0023C26.3598 29.1053 26.4947 29.1567 26.6295 29.1567Z" fill="#263544"/>
        <path d="M25.4486 28.6817C25.7406 28.6817 25.9764 28.4465 25.9764 28.1552V26.7932C25.9764 26.5018 25.7406 26.2666 25.4486 26.2666C25.1566 26.2666 24.9209 26.5018 24.9209 26.7932V28.1552C24.9209 28.4465 25.1566 28.6817 25.4486 28.6817Z" fill="#263544"/>
        <path d="M23.9239 29.0179C24.0271 29.1209 24.162 29.1724 24.2969 29.1724C24.4317 29.1724 24.5666 29.1209 24.6698 29.0179C24.8762 28.812 24.8762 28.4785 24.6698 28.2737L23.7046 27.3107C23.4982 27.1048 23.164 27.1048 22.9588 27.3107C22.7524 27.5166 22.7524 27.8501 22.9588 28.0549L23.9239 29.0179Z" fill="#263544"/>
        <path d="M24.3485 29.7795C24.3485 29.4881 24.1128 29.2529 23.8208 29.2529H22.4557C22.1637 29.2529 21.928 29.4881 21.928 29.7795C21.928 30.0708 22.1637 30.306 22.4557 30.306H23.8208C24.1128 30.306 24.3485 30.0708 24.3485 29.7795Z" fill="#263544"/>
        <path d="M23.9381 30.6007L22.9729 31.5638C22.7665 31.7697 22.7665 32.1032 22.9729 32.3079C23.0761 32.4109 23.211 32.4624 23.3458 32.4624C23.4807 32.4624 23.6156 32.4109 23.7188 32.3079L24.6839 31.3449C24.8903 31.139 24.8903 30.8055 24.6839 30.6007C24.4775 30.3948 24.1433 30.3948 23.9381 30.6007Z" fill="#263544"/>
        <path d="M92.0931 20.6362C87.0187 20.6362 82.8906 24.755 82.8906 29.8181C82.8906 34.8812 87.0187 39 92.0931 39C97.1676 39 101.296 34.8812 101.296 29.8181C101.296 24.755 97.1676 20.6362 92.0931 20.6362ZM92.0931 37.9469C87.6004 37.9469 83.9461 34.3009 83.9461 29.8181C83.9461 25.3354 87.6004 21.6893 92.0931 21.6893C96.5859 21.6893 100.24 25.3354 100.24 29.8181C100.24 34.3009 96.5859 37.9469 92.0931 37.9469Z" fill="#263544"/>
        <path d="M92.093 24.458C89.1307 24.458 86.7207 26.8626 86.7207 29.8183C86.7207 32.774 89.1307 35.1786 92.093 35.1786C95.0554 35.1786 97.4654 32.774 97.4654 29.8183C97.4654 26.8626 95.0554 24.458 92.093 24.458ZM92.093 34.1243C89.7135 34.1243 87.7762 32.1925 87.7762 29.8171C87.7762 27.4418 89.7124 25.5099 92.093 25.5099C94.4737 25.5099 96.4099 27.4418 96.4099 29.8171C96.4099 32.1925 94.4737 34.1243 92.093 34.1243Z" fill="#263544"/>
        <path d="M92.0602 30.9214C91.7682 30.9214 91.5325 31.1566 91.5325 31.4479V32.81C91.5325 33.1013 91.7682 33.3365 92.0602 33.3365C92.3522 33.3365 92.5879 33.1013 92.5879 32.81V31.4479C92.5879 31.1566 92.3522 30.9214 92.0602 30.9214Z" fill="#263544"/>
        <path d="M93.6294 30.5871C93.423 30.3811 93.0888 30.3811 92.8836 30.5871C92.6772 30.793 92.6772 31.1265 92.8836 31.3313L93.8487 32.2943C93.9519 32.3972 94.0868 32.4487 94.2217 32.4487C94.3565 32.4487 94.4914 32.3972 94.5946 32.2943C94.801 32.0883 94.801 31.7549 94.5946 31.5501L93.6294 30.5871Z" fill="#263544"/>
        <path d="M93.7316 29.2529C93.4396 29.2529 93.2039 29.4881 93.2039 29.7795C93.2039 30.0708 93.4396 30.306 93.7316 30.306H95.0967C95.3887 30.306 95.6244 30.0708 95.6244 29.7795C95.6244 29.4881 95.3887 29.2529 95.0967 29.2529H93.7316Z" fill="#263544"/>
        <path d="M93.2414 29.1567C93.3762 29.1567 93.5111 29.1053 93.6143 29.0023L94.5795 28.0393C94.7859 27.8333 94.7859 27.4999 94.5795 27.2951C94.373 27.0891 94.0388 27.0891 93.8336 27.2951L92.8684 28.2581C92.662 28.464 92.662 28.7975 92.8684 29.0023C92.9716 29.1053 93.1065 29.1567 93.2414 29.1567Z" fill="#263544"/>
        <path d="M92.0602 28.6817C92.3522 28.6817 92.5879 28.4465 92.5879 28.1552V26.7932C92.5879 26.5018 92.3522 26.2666 92.0602 26.2666C91.7682 26.2666 91.5325 26.5018 91.5325 26.7932V28.1552C91.5325 28.4465 91.7682 28.6817 92.0602 28.6817Z" fill="#263544"/>
        <path d="M90.5357 29.0179C90.6389 29.1209 90.7738 29.1724 90.9087 29.1724C91.0435 29.1724 91.1784 29.1209 91.2816 29.0179C91.488 28.812 91.488 28.4785 91.2816 28.2737L90.3164 27.3107C90.11 27.1048 89.7758 27.1048 89.5706 27.3107C89.3642 27.5166 89.3642 27.8501 89.5706 28.0549L90.5357 29.0179Z" fill="#263544"/>
        <path d="M90.9603 29.7795C90.9603 29.4881 90.7246 29.2529 90.4326 29.2529H89.0675C88.7755 29.2529 88.5398 29.4881 88.5398 29.7795C88.5398 30.0708 88.7755 30.306 89.0675 30.306H90.4326C90.7246 30.306 90.9603 30.0708 90.9603 29.7795Z" fill="#263544"/>
        <path d="M90.5499 30.6007L89.5847 31.5638C89.3783 31.7697 89.3783 32.1032 89.5847 32.3079C89.6879 32.4109 89.8228 32.4624 89.9577 32.4624C90.0925 32.4624 90.2274 32.4109 90.3306 32.3079L91.2958 31.3449C91.5022 31.139 91.5022 30.8055 91.2958 30.6007C91.0894 30.3948 90.7551 30.3948 90.5499 30.6007Z" fill="#263544"/>
        <path d="M40.9289 13.2808C40.6368 13.2808 40.4011 13.516 40.4011 13.8073V24.5724C40.4011 24.8638 40.6368 25.0989 40.9289 25.0989C41.2209 25.0989 41.4566 24.8638 41.4566 24.5724V13.8073C41.4566 13.516 41.2209 13.2808 40.9289 13.2808Z" fill="#263544"/>
    </g>
    <defs>
        <clipPath id="clip0_154_970">
            <rect width="111" height="39" fill="white"/>
        </clipPath>
    </defs>
</svg>
