<svg width="82" height="39" viewBox="0 0 82 39" fill="none" xmlns="http://www.w3.org/2000/svg">
    <g clip-path="url(#clip0_153_358)">
        <path d="M8.59475 12.8017L15.3852 7.04006L27.6941 5.51514L47.0482 5.76929L54.4333 12.8856L53.584 15.2581L28.2034 15.3433L8.34009 16.6141L8.59475 12.8017Z" fill="#767F89"/>
        <path d="M15.4069 11.8692C15.249 11.8692 15.0911 11.8044 14.9778 11.6773C14.7677 11.441 14.7894 11.0801 15.0249 10.8704L20.9572 5.60814C21.194 5.39846 21.5556 5.42006 21.7657 5.65516C21.9758 5.89152 21.9542 6.25242 21.7186 6.4621L15.7864 11.7244C15.6768 11.8209 15.5419 11.8692 15.4056 11.8692H15.4069Z" fill="#A8AEB4"/>
        <path d="M12.9366 19.9499C12.7788 19.9499 12.6209 19.8851 12.5088 19.758C12.2987 19.5216 12.3204 19.1607 12.5559 18.9511L22.8696 9.8015C23.1064 9.59182 23.468 9.61342 23.6781 9.84852C23.8882 10.0849 23.8666 10.4458 23.631 10.6555L13.3174 19.805C13.2079 19.9016 13.0729 19.9499 12.9366 19.9499Z" fill="#A8AEB4"/>
        <path d="M26.561 18.8063C26.4031 18.8063 26.2452 18.7415 26.1319 18.6144C25.9218 18.3781 25.9434 18.0172 26.179 17.8075L36.4926 8.65794C36.7295 8.44827 37.0911 8.46987 37.3012 8.70496C37.5113 8.94133 37.4896 9.30222 37.2541 9.5119L26.9404 18.6615C26.8309 18.758 26.6959 18.8063 26.5597 18.8063H26.561Z" fill="#A8AEB4"/>
        <path d="M36.7472 20.0768C36.5894 20.0768 36.4315 20.012 36.3181 19.8849C36.108 19.6486 36.1297 19.2877 36.3653 19.078L46.6789 9.92845C46.9158 9.71877 47.2774 9.74038 47.4875 9.97547C47.6976 10.2118 47.6759 10.5727 47.4403 10.7824L37.1267 19.932C37.0172 20.0285 36.8822 20.0768 36.746 20.0768H36.7472Z" fill="#A8AEB4"/>
        <path d="M39.803 12.1979C39.6452 12.1979 39.4885 12.1331 39.3752 12.0061C39.1651 11.7697 39.1855 11.4088 39.4223 11.1991L45.8512 5.48065C46.088 5.27097 46.4496 5.2913 46.6597 5.52766C46.8698 5.76403 46.8494 6.12493 46.6126 6.3346L40.1838 12.0531C40.0743 12.1497 39.938 12.1979 39.803 12.1979Z" fill="#A8AEB4"/>
        <path d="M19.5031 31.5242C19.5031 35.3378 16.4052 38.4283 12.5853 38.4283C8.7654 38.4283 5.66748 35.3365 5.66748 31.5242C5.66748 27.7119 8.7654 24.6201 12.5853 24.6201C16.4052 24.6201 19.5031 27.7119 19.5031 31.5242Z" fill="#58646F"/>
        <path d="M72.2173 31.397C72.2173 35.2335 69.1016 38.3443 65.2563 38.3443C61.4109 38.3443 58.2952 35.2348 58.2952 31.397C58.2952 27.5593 61.4122 24.4497 65.2563 24.4497C69.1003 24.4497 72.2173 27.5593 72.2173 31.397Z" fill="#58646F"/>
        <path d="M15.9378 31.3131C15.9378 33.0909 14.4939 34.532 12.7126 34.532C10.9312 34.532 9.4873 33.0909 9.4873 31.3131C9.4873 29.5353 10.9312 28.0942 12.7126 28.0942C14.4939 28.0942 15.9378 29.5353 15.9378 31.3131Z" fill="#C9CCD0"/>
        <path d="M68.3975 31.3131C68.3975 33.0909 66.9536 34.532 65.1723 34.532C63.3909 34.532 61.947 33.0909 61.947 31.3131C61.947 29.5353 63.3909 28.0942 65.1723 28.0942C66.9536 28.0942 68.3975 29.5353 68.3975 31.3131Z" fill="#C9CCD0"/>
        <path d="M77.4162 18.9219C77.4162 17.8697 76.5606 17.0158 75.5063 17.0158L59.4017 13.7118C59.4017 13.7118 50.3015 6.96269 49.5515 6.35145C48.8015 5.7402 46.8356 4.37158 45.053 4.37158H22.1554C11.2687 4.37158 6.36526 11.8056 3.45961 17.2242C0.658365 22.4483 0.636719 26.3623 0.636719 30.4072C0.636719 31.3602 1.49237 32.3286 2.54666 32.3286H3.27371C3.28262 31.9473 3.28899 31.7237 3.28899 31.4289C3.28899 26.2822 7.4692 22.0938 12.626 22.0938C17.7829 22.0938 21.9631 26.2899 21.9631 31.4365C21.9631 31.7275 21.9695 31.9473 21.9784 32.3286H55.7448C55.755 31.9473 55.7613 31.6678 55.7613 31.3437C55.7613 26.1501 60.4152 21.9248 65.213 21.9248C70.0108 21.9248 74.6646 26.159 74.6646 31.3526C74.6646 31.6729 74.671 31.9486 74.6799 32.3298H77.7969C78.8512 32.3298 79.7069 31.4441 79.7069 30.3919L77.415 18.9232L77.4162 18.9219ZM25.5321 12.2847C25.3704 13.2428 24.9566 13.7753 23.5878 13.7753H11.2687C9.89992 13.7753 10.0311 12.9277 10.3456 12.2821C11.5119 9.88546 16.2766 6.80257 26.1662 6.80257C26.0707 7.78742 25.6951 11.3278 25.5321 12.286V12.2847ZM50.1678 14.0295H32.7237C31.6694 14.0295 30.8137 13.1437 30.8137 12.0915L31.0684 8.80276C31.0684 7.75057 31.924 6.91186 32.9783 6.91186H43.907C46.1136 6.91186 46.8356 7.46845 47.9395 8.23092C49.0435 8.99338 51.8231 11.052 51.8231 12.0903C51.8231 13.1285 51.2221 14.0282 50.1678 14.0282V14.0295Z" fill="#F26A21"/>
        <path d="M39.0263 21.9082C54.1453 21.9082 67.7021 20.2473 76.9003 17.6219C76.5515 17.2496 76.0574 17.0158 75.5061 17.0158L59.4015 13.7118C59.4015 13.7118 50.3013 6.96269 49.5513 6.35144C48.8013 5.7402 46.8354 4.37158 45.0528 4.37158H22.1552C11.2685 4.37158 6.36507 11.8056 3.45941 17.2242C3.29643 17.5279 3.14491 17.8265 2.99976 18.1213C12.1191 20.457 24.8889 21.9082 39.0263 21.9082ZM31.0682 8.80403C31.0682 7.75184 31.9239 6.91313 32.9781 6.91313H43.9068C46.1134 6.91313 46.8354 7.46972 47.9393 8.23219C49.0433 8.99465 51.8229 11.0533 51.8229 12.0915C51.8229 13.1297 51.2219 14.0294 50.1676 14.0294H32.7235C31.6692 14.0294 30.8135 13.1437 30.8135 12.0915L31.0682 8.80276V8.80403ZM10.3454 12.2834C11.5117 9.88673 16.2764 6.80384 26.166 6.80384C26.0705 7.78869 25.6949 11.3291 25.5319 12.2872C25.3702 13.2454 24.9564 13.7778 23.5876 13.7778H11.2685C9.89972 13.7778 10.0309 12.9302 10.3454 12.2847V12.2834Z" fill="#F58C55"/>
        <path d="M3.62891 16.5713H7.70345C7.70345 16.5713 9.10407 20.5742 1.97363 20.5742C2.54661 18.9222 3.62891 16.5713 3.62891 16.5713Z" fill="#FBD4BF"/>
        <path d="M73.8509 16.4438C73.8509 16.4438 72.3866 23.306 78.2438 22.9248C77.7345 19.7479 78.0528 16.6345 73.8509 16.4438Z" fill="white"/>
        <path d="M2.54664 32.8369H3.83012L3.84794 32.2829C3.85813 31.9588 3.86322 31.6678 3.86322 31.3959C3.86322 26.572 7.79515 22.6491 12.6273 22.6491C17.4594 22.6491 21.3914 26.5733 21.3914 31.3959C21.3914 31.664 21.3965 31.9537 21.4066 32.2816L21.4232 32.8356H56.3012L56.3178 32.2816C56.3292 31.9245 56.3343 31.6068 56.3343 31.3107C56.3343 26.6063 60.4827 22.4788 65.213 22.4788C69.9432 22.4788 74.0916 26.6063 74.0916 31.3107C74.0916 31.6055 74.0967 31.9131 74.1069 32.2803L74.1235 32.8356H77.7969C79.1657 32.8356 80.4925 31.6284 80.2798 30.3576C80.0672 29.0869 77.9866 18.861 77.9866 18.861C77.69 17.608 76.8738 16.7299 75.5661 16.4439L59.641 13.1768C58.6364 12.427 50.6019 6.43788 49.9131 5.8762C49.2968 5.37425 47.122 3.73622 45.0517 3.73622H22.1541C21.646 3.73622 21.1507 3.75147 20.6669 3.78324L18.4411 0.267013C18.2718 0.000150918 17.9178 -0.0799078 17.6504 0.089105C17.383 0.258118 17.3028 0.611392 17.4722 0.878255L19.3872 3.90396C10.4907 4.99937 5.94888 11.3367 2.95282 16.9243C0.0637207 22.3136 0.0637207 26.4043 0.0637207 30.3589C0.0637207 31.6792 1.22369 32.8369 2.54664 32.8369ZM3.96381 17.4618C3.98673 17.4186 4.00965 17.3754 4.03384 17.3335H6.79689C6.84909 17.4212 6.87583 17.5584 6.87583 17.7567C6.87583 18.1773 6.87583 19.4595 4.14844 19.8102C3.83521 19.8509 3.61239 20.1368 3.65313 20.4507C3.69006 20.7392 3.93707 20.9501 4.22102 20.9501C4.24521 20.9501 4.27068 20.9488 4.29487 20.945C7.53667 20.5282 8.02179 18.7695 8.02179 17.7579C8.02179 17.6042 8.01034 17.4644 7.98869 17.3348H14.3246C14.6416 17.3348 14.8976 17.0793 14.8976 16.7629C14.8976 16.4465 14.6416 16.1911 14.3246 16.1911H4.67049C7.83844 10.6746 12.7406 4.88119 22.1553 4.88119H28.2633C28.0736 7.3503 27.0741 20.3846 26.9951 21.7062C26.8538 24.0533 27.2829 25.7206 28.3053 26.8058C29.3125 27.8733 30.9028 28.3917 33.1693 28.3917H45.3929C45.71 28.3917 45.9659 28.1363 45.9659 27.8199C45.9659 27.5035 45.71 27.2481 45.3929 27.2481H33.1693C31.2365 27.2481 29.9186 26.8465 29.1393 26.0218C28.3448 25.1792 28.0176 23.7903 28.1385 21.7748C28.2175 20.4647 29.2463 7.0504 29.4131 4.88119H45.0542C46.7897 4.88119 48.8041 6.44932 49.1911 6.76447C49.9424 7.37571 58.6886 13.8948 59.0604 14.1718L59.1623 14.2481L73.222 17.1327C73.2182 17.242 73.2143 17.3525 73.2143 17.4618C73.2143 20.0364 74.1999 22.2577 75.6667 22.9897C75.7495 23.0304 75.8361 23.0507 75.9226 23.0507C76.1327 23.0507 76.3352 22.935 76.4358 22.7343C76.5771 22.4522 76.4625 22.1078 76.1798 21.9667C75.2758 21.5156 74.3603 19.8229 74.3603 17.4606C74.3603 17.4288 74.3616 17.397 74.3628 17.3653L75.5063 17.5876C76.2384 17.7465 76.6942 18.2027 76.8432 18.922L78.4998 27.2455H76.5886C76.2715 27.2455 76.0156 27.5009 76.0156 27.8174C76.0156 28.1338 76.2715 28.3892 76.5886 28.3892H78.6258C78.6602 28.3892 78.6946 28.3854 78.7264 28.379C78.7264 28.379 79.0842 29.8264 79.1339 30.411C79.1823 30.9943 78.5176 31.6932 77.7982 31.6932H75.2414C75.2389 31.5611 75.2389 31.4352 75.2389 31.312C75.2389 28.6891 74.1375 26.1819 72.1371 24.2516C70.217 22.3988 67.6946 21.3364 65.213 21.3364C62.7313 21.3364 60.2089 22.3988 58.2888 24.2516C56.2885 26.1819 55.1871 28.6891 55.1871 31.312C55.1871 31.434 55.1871 31.5611 55.1845 31.6932H22.5399C22.5386 31.5903 22.5373 31.4924 22.5373 31.3971C22.5373 25.943 18.091 21.5067 12.6273 21.5067C7.1636 21.5067 2.71599 25.943 2.71599 31.3971C2.71599 31.4937 2.71599 31.5916 2.71344 31.6932H2.54537C1.79285 31.6932 1.20841 30.9765 1.20841 30.3589C1.20841 29.6981 1.20841 29.0449 1.22114 28.3892H1.84506C2.16211 28.3892 2.41804 28.1338 2.41804 27.8174C2.41804 27.5009 2.16211 27.2455 1.84506 27.2455H1.25807C1.39686 24.3037 1.92909 21.2564 3.96254 17.4618H3.96381Z" fill="#263544"/>
        <path d="M55.3499 23.4472C55.3104 23.7611 55.5332 24.0458 55.8477 24.0852C55.8719 24.0877 55.8961 24.0903 55.9191 24.0903C56.2043 24.0903 56.45 23.878 56.4869 23.5896C56.9199 20.1318 55.7586 15.6028 55.709 15.4121C55.63 15.1059 55.3168 14.9229 55.0099 15.0017C54.7031 15.0805 54.5197 15.3931 54.5986 15.6993C54.6101 15.7438 55.7548 20.2055 55.3486 23.4485L55.3499 23.4472Z" fill="#263544"/>
        <path d="M52.3959 12.0598C52.3959 10.7611 49.8086 8.77998 48.2653 7.7138L48.1215 7.61341C47.0455 6.86747 46.1962 6.27783 43.9081 6.27783H32.9795C31.6183 6.27783 30.5093 7.37705 30.4965 8.73296L30.2432 12.0166V12.0611C30.2419 13.4272 31.3547 14.5391 32.7248 14.5391H50.1689C51.46 14.5391 52.3972 13.4971 52.3972 12.0611L52.3959 12.0598ZM31.3866 12.0802L31.64 8.80031V8.75584C31.6412 8.02006 32.241 7.42153 32.9782 7.42153H43.9069C45.8359 7.42153 46.4853 7.87138 47.467 8.55251L47.6134 8.65418C49.8595 10.2058 51.2499 11.6303 51.2499 12.0598C51.2499 12.6749 50.966 13.3942 50.1676 13.3942H32.7235C31.9927 13.3942 31.398 12.8071 31.3866 12.0802Z" fill="#263544"/>
        <path d="M12.542 27.627C10.436 27.627 8.72217 29.3374 8.72217 31.4393C8.72217 33.5411 10.436 35.2516 12.542 35.2516C14.6481 35.2516 16.3619 33.5411 16.3619 31.4393C16.3619 29.3374 14.6481 27.627 12.542 27.627ZM12.542 34.1079C11.0676 34.1079 9.86813 32.9108 9.86813 31.4393C9.86813 29.9677 11.0676 28.7706 12.542 28.7706C14.0165 28.7706 15.216 29.9677 15.216 31.4393C15.216 32.9108 14.0165 34.1079 12.542 34.1079Z" fill="#263544"/>
        <path d="M65.129 27.627C63.0229 27.627 61.3091 29.3374 61.3091 31.4393C61.3091 33.5411 63.0229 35.2516 65.129 35.2516C67.235 35.2516 68.9488 33.5411 68.9488 31.4393C68.9488 29.3374 67.235 27.627 65.129 27.627ZM65.129 34.1079C63.6545 34.1079 62.455 32.9108 62.455 31.4393C62.455 29.9677 63.6545 28.7706 65.129 28.7706C66.6034 28.7706 67.8029 29.9677 67.8029 31.4393C67.8029 32.9108 66.6034 34.1079 65.129 34.1079Z" fill="#263544"/>
        <path d="M36.9891 16.1899H30.75C30.4329 16.1899 30.177 16.4454 30.177 16.7618C30.177 17.0782 30.4329 17.3336 30.75 17.3336H36.9891C37.3062 17.3336 37.5621 17.0782 37.5621 16.7618C37.5621 16.4454 37.3062 16.1899 36.9891 16.1899Z" fill="#263544"/>
        <path d="M26.0974 12.3407C26.2603 11.38 26.636 7.87907 26.7365 6.84085C26.7518 6.68073 26.6996 6.52061 26.5901 6.40116C26.4819 6.28171 26.3278 6.21436 26.1661 6.21436C16.186 6.21436 11.1285 9.33156 9.82977 12.0015C9.50636 12.6661 9.47834 13.2189 9.74574 13.6446C10.0119 14.069 10.525 14.285 11.2686 14.285H23.5877C25.1169 14.285 25.8669 13.7043 26.0974 12.342V12.3407ZM10.7173 13.0371C10.7173 13.0371 10.6676 12.8961 10.8599 12.4996C11.769 10.6303 15.8792 7.49402 25.5307 7.36186C25.3856 8.7648 25.1004 11.3597 24.9667 12.1501C24.8533 12.8236 24.6802 13.1401 23.5864 13.1401H11.2673C10.8217 13.1401 10.7173 13.0371 10.716 13.0371H10.7173Z" fill="#263544"/>
        <path d="M22.8556 37.2846H17.341C19.0344 35.8969 20.118 33.7912 20.118 31.439C20.118 27.2696 16.7196 23.8779 12.5419 23.8779C8.36425 23.8779 4.96584 27.2696 4.96584 31.439C4.96584 33.7912 6.04814 35.8969 7.74289 37.2846H0.572981C0.255932 37.2846 0 37.54 0 37.8564C0 38.1728 0.255932 38.4283 0.572981 38.4283H9.61335C9.62481 38.4283 9.635 38.4257 9.64646 38.4245C10.539 38.7943 11.5169 39.0001 12.5419 39.0001C13.5669 39.0001 14.5448 38.7943 15.4374 38.4245C15.4489 38.4245 15.459 38.4283 15.4705 38.4283H22.8556C23.1726 38.4283 23.4286 38.1728 23.4286 37.8564C23.4286 37.54 23.1726 37.2846 22.8556 37.2846ZM6.1118 31.439C6.1118 27.8999 8.99581 25.0216 12.5419 25.0216C16.088 25.0216 18.9721 27.8999 18.9721 31.439C18.9721 34.9781 16.088 37.8564 12.5419 37.8564C8.99581 37.8564 6.1118 34.9781 6.1118 31.439Z" fill="#263544"/>
        <path d="M81.427 37.2846H69.9279C71.6214 35.8969 72.7049 33.7912 72.7049 31.439C72.7049 27.2696 69.3065 23.8779 65.1288 23.8779C60.9512 23.8779 57.5527 27.2696 57.5527 31.439C57.5527 33.7912 58.635 35.8969 60.3298 37.2846H54.8152C54.4981 37.2846 54.2422 37.54 54.2422 37.8564C54.2422 38.1728 54.4981 38.4283 54.8152 38.4283H62.2003C62.2117 38.4283 62.2219 38.4257 62.2334 38.4245C63.1259 38.7943 64.1038 39.0001 65.1288 39.0001C66.1538 39.0001 67.1317 38.7943 68.0243 38.4245C68.0358 38.4245 68.0459 38.4283 68.0574 38.4283H81.427C81.744 38.4283 82 38.1728 82 37.8564C82 37.54 81.744 37.2846 81.427 37.2846ZM58.6987 31.439C58.6987 27.8999 61.5827 25.0216 65.1288 25.0216C68.675 25.0216 71.559 27.8999 71.559 31.439C71.559 34.9781 68.675 37.8564 65.1288 37.8564C61.5827 37.8564 58.6987 34.9781 58.6987 31.439Z" fill="#263544"/>
        <path d="M13.3569 31.4302L13.9413 30.847C14.1654 30.6233 14.1654 30.2611 13.9413 30.0388C13.7172 29.8151 13.3544 29.8151 13.1315 30.0388L12.5471 30.622L11.9474 30.0222C11.7233 29.7986 11.3604 29.7986 11.1376 30.0222C10.9135 30.2459 10.9135 30.6081 11.1376 30.8304L11.7386 31.4302L11.1528 32.0148C10.9287 32.2385 10.9287 32.6006 11.1528 32.823C11.2649 32.9348 11.4113 32.9908 11.5577 32.9908C11.7042 32.9908 11.8506 32.9348 11.9626 32.823L12.5484 32.2385L13.1443 32.8345C13.2563 32.9463 13.4027 33.0022 13.5492 33.0022C13.6956 33.0022 13.842 32.9463 13.9541 32.8345C14.1782 32.6108 14.1782 32.2486 13.9541 32.0262L13.3582 31.4302H13.3569Z" fill="#263544"/>
        <path d="M65.9438 31.4302L66.5283 30.847C66.7524 30.6233 66.7524 30.2611 66.5283 30.0388C66.3042 29.8151 65.9413 29.8151 65.7184 30.0388L65.134 30.622L64.5343 30.0222C64.3102 29.7986 63.9486 29.7986 63.7245 30.0222C63.5004 30.2459 63.5004 30.6081 63.7245 30.8304L64.3255 31.4302L63.7397 32.0148C63.5157 32.2385 63.5157 32.6006 63.7397 32.823C63.8518 32.9348 63.9982 32.9908 64.1447 32.9908C64.2911 32.9908 64.4375 32.9348 64.5496 32.823L65.1353 32.2385L65.7312 32.8345C65.8432 32.9463 65.9897 33.0022 66.1361 33.0022C66.2825 33.0022 66.4289 32.9463 66.541 32.8345C66.7651 32.6108 66.7651 32.2486 66.541 32.0262L65.9451 31.4302H65.9438Z" fill="#263544"/>
    </g>
    <defs>
        <clipPath id="clip0_153_358">
            <rect width="82" height="39" fill="white"/>
        </clipPath>
    </defs>
</svg>
