<svg width="100" height="44" viewBox="0 0 100 44" fill="none" xmlns="http://www.w3.org/2000/svg">
    <g clip-path="url(#clip0_153_359)">
        <path d="M75.8744 15.3033C76.0977 16.4154 74.9536 17.2615 73.8168 17.2615H68.6728C67.5359 17.2615 66.5637 16.3477 66.5637 15.2791V11.9912C66.5637 10.9226 67.5359 10.1055 68.6728 10.1055H72.9938C74.1306 10.1055 74.7252 10.9478 75.0514 12.0279L75.8744 15.3042V15.3033Z" fill="#767F89"/>
        <path d="M17.8572 29.7363C19.458 30.7034 20.6792 32.2506 21.2852 34.088H21.9261C22.5321 32.2506 23.7522 30.7034 25.3541 29.7363H17.8582H17.8572Z" fill="#515D69"/>
        <path d="M75.3602 29.7363H36.7871C38.3879 30.7034 39.6091 32.2506 40.2151 34.088H75.3612C76.498 34.088 77.3674 33.1741 77.3674 32.1056V31.622C77.3674 29.9056 77.2388 29.7363 75.3612 29.7363H75.3602Z" fill="#515D69"/>
        <path d="M2.79022 34.088C3.39619 32.2506 4.61635 30.7034 6.21821 29.7363H2.52067C1.38384 29.7363 0.411621 30.5535 0.411621 31.622V32.1056C0.411621 33.1741 1.38384 34.088 2.52067 34.088H2.79022Z" fill="#515D69"/>
        <path d="M11.8827 43.6616C16.0021 43.6616 19.3415 40.5227 19.3415 36.6506C19.3415 32.7786 16.0021 29.6396 11.8827 29.6396C7.76327 29.6396 4.42383 32.7786 4.42383 36.6506C4.42383 40.5227 7.76327 43.6616 11.8827 43.6616Z" fill="#68727C"/>
        <path d="M11.8826 40.325C14.0417 40.325 15.7921 38.6798 15.7921 36.6503C15.7921 34.6208 14.0417 32.9756 11.8826 32.9756C9.72347 32.9756 7.97314 34.6208 7.97314 36.6503C7.97314 38.6798 9.72347 40.325 11.8826 40.325Z" fill="#BDC2C7"/>
        <path d="M30.9156 43.6616C35.035 43.6616 38.3745 40.5227 38.3745 36.6506C38.3745 32.7786 35.035 29.6396 30.9156 29.6396C26.7962 29.6396 23.4568 32.7786 23.4568 36.6506C23.4568 40.5227 26.7962 43.6616 30.9156 43.6616Z" fill="#68727C"/>
        <path d="M11.8828 37.9562C12.6498 37.9562 13.2717 37.3717 13.2717 36.6507C13.2717 35.9297 12.6498 35.3452 11.8828 35.3452C11.1157 35.3452 10.4939 35.9297 10.4939 36.6507C10.4939 37.3717 11.1157 37.9562 11.8828 37.9562Z" fill="#515D69"/>
        <path d="M31.1214 40.325C33.2805 40.325 35.0308 38.6798 35.0308 36.6503C35.0308 34.6208 33.2805 32.9756 31.1214 32.9756C28.9622 32.9756 27.2119 34.6208 27.2119 36.6503C27.2119 38.6798 28.9622 40.325 31.1214 40.325Z" fill="#BDC2C7"/>
        <path d="M31.1213 37.9562C31.8884 37.9562 32.5102 37.3717 32.5102 36.6507C32.5102 35.9297 31.8884 35.3452 31.1213 35.3452C30.3542 35.3452 29.7324 35.9297 29.7324 36.6507C29.7324 37.3717 30.3542 37.9562 31.1213 37.9562Z" fill="#515D69"/>
        <path d="M90.4835 43.6616C94.6029 43.6616 97.9424 40.5227 97.9424 36.6506C97.9424 32.7786 94.6029 29.6396 90.4835 29.6396C86.3641 29.6396 83.0247 32.7786 83.0247 36.6506C83.0247 40.5227 86.3641 43.6616 90.4835 43.6616Z" fill="#68727C"/>
        <path d="M90.4834 40.325C92.6426 40.325 94.3929 38.6798 94.3929 36.6503C94.3929 34.6208 92.6426 32.9756 90.4834 32.9756C88.3243 32.9756 86.574 34.6208 86.574 36.6503C86.574 38.6798 88.3243 40.325 90.4834 40.325Z" fill="#BDC2C7"/>
        <path d="M90.6892 37.9562C91.4562 37.9562 92.0781 37.3717 92.0781 36.6507C92.0781 35.9297 91.4562 35.3452 90.6892 35.3452C89.9221 35.3452 89.3003 35.9297 89.3003 36.6507C89.3003 37.3717 89.9221 37.9562 90.6892 37.9562Z" fill="#515D69"/>
        <path d="M68.8785 13.4901C68.751 13.4901 68.6234 13.4408 68.5318 13.3441C68.3621 13.1642 68.3796 12.8896 68.5699 12.73L73.3631 8.72551C73.5545 8.56595 73.8467 8.58239 74.0164 8.76129C74.1862 8.94116 74.1687 9.2158 73.9783 9.37536L69.1851 13.3798C69.0967 13.4533 68.9876 13.4901 68.8775 13.4901H68.8785Z" fill="#A8AEB4"/>
        <path d="M73.5597 31.5737H55.144C54.0077 31.5737 53.0864 32.4396 53.0864 33.5078V37.7627C53.0864 38.8309 54.0077 39.6968 55.144 39.6968H73.5597C74.6961 39.6968 75.6173 38.8309 75.6173 37.7627V33.5078C75.6173 32.4396 74.6961 31.5737 73.5597 31.5737Z" fill="#D4D7DA"/>
        <path d="M73.5597 31.5737H55.144C54.0072 31.5737 53.0864 32.4392 53.0864 33.5078V34.9951C55.5905 36.0927 59.5895 36.8025 64.0957 36.8025C68.9239 36.8025 73.1687 35.9873 75.6173 34.7533V33.5068C75.6173 32.4382 74.6965 31.5728 73.5597 31.5728V31.5737Z" fill="#EEEFF0"/>
        <path d="M97.428 25.3526V22.1933C97.428 21.1248 97.0555 19.8725 95.8847 19.6791L78.9928 17.0362L77.1029 10.178C76.7428 9.06587 76.0288 8.26807 74.4341 8.26807H63.7345C62.5977 8.26807 61.6255 9.08521 61.6255 10.1538V26.2065C61.6255 27.2751 62.5977 28.1889 63.7345 28.1889H77.3148C78.4516 28.1889 79.321 29.0061 79.321 30.0747V33.1208H82.2129L84.1049 29.9296C84.7736 28.8659 86.0545 27.9955 87.1913 27.9955H93.3642C94.501 27.9955 96.0391 29.0109 96.5535 29.9296L97.2736 31.2835H99.4856V26.9241C99.4856 26.9241 99.074 26.223 97.428 25.3526V25.3526ZM73.8168 17.2615H68.6728C67.536 17.2615 66.5638 16.3476 66.5638 15.2791V11.9911C66.5638 10.9226 67.536 10.1054 68.6728 10.1054H72.9938C74.1306 10.1054 74.7253 10.9477 75.0514 12.0279L75.8745 15.3042C76.0977 16.4163 74.9537 17.2624 73.8168 17.2624V17.2615Z" fill="#F26A21"/>
        <path d="M64.3107 21.0898C64.1831 21.0898 64.0555 21.0405 63.964 20.9438C63.7942 20.7639 63.8117 20.4893 64.002 20.3297L72.3354 13.3671C72.5267 13.2076 72.8189 13.224 72.9887 13.4029C73.1584 13.5828 73.1409 13.8574 72.9506 14.017L64.6173 20.9796C64.5288 21.0531 64.4197 21.0898 64.3097 21.0898H64.3107Z" fill="#A8AEB4"/>
        <path d="M97.0164 25.1914V28.7694L97.2736 31.2837L99.5369 30.8485L99.4855 26.9243L97.0164 25.1914Z" fill="white"/>
        <path d="M95.8848 19.6791L78.9928 17.0362L77.1029 10.178C76.7428 9.06587 76.0288 8.26807 74.4341 8.26807H63.7345C62.5977 8.26807 61.6255 9.08521 61.6255 10.1538V19.7922C66.3313 21.6914 72.8889 22.8703 80.144 22.8703C86.572 22.8703 92.4527 21.9448 96.9825 20.413C96.7407 20.0388 96.3858 19.7613 95.8848 19.6791V19.6791ZM73.8168 17.2615H68.6728C67.536 17.2615 66.5638 16.3476 66.5638 15.2791V11.9911C66.5638 10.9226 67.536 10.1054 68.6728 10.1054H72.9938C74.1306 10.1054 74.7253 10.9477 75.0514 12.0279L75.8745 15.3042C76.0977 16.4163 74.9537 17.2624 73.8168 17.2624V17.2615Z" fill="#F58C55"/>
        <path d="M79.5268 19.4858L79.1152 20.0661L79.5268 20.743L84.6193 21.71L85.1338 20.7913L84.7222 19.8727L79.5268 19.4858Z" fill="white"/>
        <path d="M25.6173 30.0459L26.8313 29.2529H16.3787L17.5927 30.0459C19.1245 31.0458 20.2789 32.5118 20.8437 34.1722L20.9466 34.4749H22.2634L22.3663 34.1722C22.9311 32.5109 24.0855 31.0458 25.6173 30.0459V30.0459ZM21.605 33.5765C21.0957 32.2652 20.2531 31.0768 19.1657 30.1233H24.0433C22.9558 31.0758 22.1132 32.2643 21.604 33.5765H21.605Z" fill="#263544"/>
        <path d="M2.52058 34.4749H3.12757L3.23045 34.1722C3.79527 32.5109 4.94959 31.0458 6.48148 30.0459L7.69547 29.2529H2.52058C1.13066 29.2529 0 30.3157 0 31.6222V32.1057C0 33.4121 1.13066 34.4749 2.52058 34.4749ZM0.925926 31.6222C0.925926 30.7953 1.64095 30.1233 2.52058 30.1233H4.90844C3.81379 31.0826 2.96605 32.2817 2.45885 33.6036C1.60802 33.5727 0.925926 32.9131 0.925926 32.1057V31.6222V31.6222Z" fill="#263544"/>
        <path d="M11.9341 32.3774C9.45567 32.3774 7.43921 34.2728 7.43921 36.6024C7.43921 38.932 9.45567 40.8274 11.9341 40.8274C14.4125 40.8274 16.4289 38.932 16.4289 36.6024C16.4289 34.2728 14.4125 32.3774 11.9341 32.3774ZM11.9341 39.957C9.96596 39.957 8.36513 38.4523 8.36513 36.6024C8.36513 34.7525 9.96596 33.2478 11.9341 33.2478C13.9022 33.2478 15.503 34.7525 15.503 36.6024C15.503 38.4523 13.9022 39.957 11.9341 39.957Z" fill="#263544"/>
        <path d="M11.9341 34.8618C10.9136 34.8618 10.0823 35.6432 10.0823 36.6025C10.0823 37.5618 10.9136 38.3431 11.9341 38.3431C12.9547 38.3431 13.786 37.5618 13.786 36.6025C13.786 35.6432 12.9547 34.8618 11.9341 34.8618ZM11.9341 37.4728C11.4238 37.4728 11.0082 37.0821 11.0082 36.6025C11.0082 36.1228 11.4238 35.7321 11.9341 35.7321C12.4444 35.7321 12.8601 36.1228 12.8601 36.6025C12.8601 37.0821 12.4444 37.4728 11.9341 37.4728Z" fill="#263544"/>
        <path d="M19.8045 36.6024C19.8045 32.5234 16.2736 29.2046 11.9341 29.2046C7.59458 29.2046 4.06371 32.5234 4.06371 36.6024C4.06371 38.8962 5.17997 40.9502 6.92997 42.3079H0.925854C0.669681 42.3079 0.462891 42.5023 0.462891 42.7431C0.462891 42.9838 0.669681 43.1782 0.925854 43.1782H8.33326C8.33326 43.1782 8.33429 43.1782 8.33532 43.1782C9.41454 43.7023 10.6378 44.0002 11.9341 44.0002C13.2304 44.0002 14.4536 43.7023 15.5328 43.1782C15.5328 43.1782 15.5339 43.1782 15.5349 43.1782H19.2386C19.4948 43.1782 19.7016 42.9838 19.7016 42.7431C19.7016 42.5023 19.4948 42.3079 19.2386 42.3079H16.9382C18.6872 40.9502 19.8045 38.8962 19.8045 36.6024ZM4.98964 36.6024C4.98964 33.0031 8.10487 30.0749 11.9341 30.0749C15.7633 30.0749 18.8785 33.0031 18.8785 36.6024C18.8785 40.2017 15.7633 43.1299 11.9341 43.1299C8.10487 43.1299 4.98964 40.2017 4.98964 36.6024Z" fill="#263544"/>
        <path d="M31.0701 32.3774C28.5917 32.3774 26.5752 34.2728 26.5752 36.6024C26.5752 38.932 28.5917 40.8274 31.0701 40.8274C33.5484 40.8274 35.5649 38.932 35.5649 36.6024C35.5649 34.2728 33.5484 32.3774 31.0701 32.3774ZM31.0701 39.957C29.1019 39.957 27.5011 38.4523 27.5011 36.6024C27.5011 34.7525 29.1019 33.2478 31.0701 33.2478C33.0382 33.2478 34.639 34.7525 34.639 36.6024C34.639 38.4523 33.0382 39.957 31.0701 39.957Z" fill="#263544"/>
        <path d="M31.0699 34.8618C30.0493 34.8618 29.218 35.6432 29.218 36.6025C29.218 37.5618 30.0493 38.3431 31.0699 38.3431C32.0904 38.3431 32.9217 37.5618 32.9217 36.6025C32.9217 35.6432 32.0904 34.8618 31.0699 34.8618ZM31.0699 37.4728C30.5596 37.4728 30.1439 37.0821 30.1439 36.6025C30.1439 36.1228 30.5596 35.7321 31.0699 35.7321C31.5802 35.7321 31.9958 36.1228 31.9958 36.6025C31.9958 37.0821 31.5802 37.4728 31.0699 37.4728Z" fill="#263544"/>
        <path d="M90.5349 32.3774C88.0565 32.3774 86.04 34.2728 86.04 36.6024C86.04 38.932 88.0565 40.8274 90.5349 40.8274C93.0133 40.8274 95.0297 38.932 95.0297 36.6024C95.0297 34.2728 93.0133 32.3774 90.5349 32.3774ZM90.5349 39.957C88.5668 39.957 86.966 38.4523 86.966 36.6024C86.966 34.7525 88.5668 33.2478 90.5349 33.2478C92.503 33.2478 94.1038 34.7525 94.1038 36.6024C94.1038 38.4523 92.503 39.957 90.5349 39.957Z" fill="#263544"/>
        <path d="M90.535 34.8618C89.5144 34.8618 88.6831 35.6432 88.6831 36.6025C88.6831 37.5618 89.5144 38.3431 90.535 38.3431C91.5555 38.3431 92.3868 37.5618 92.3868 36.6025C92.3868 35.6432 91.5555 34.8618 90.535 34.8618ZM90.535 37.4728C90.0247 37.4728 89.609 37.0821 89.609 36.6025C89.609 36.1228 90.0247 35.7321 90.535 35.7321C91.0452 35.7321 91.4609 36.1228 91.4609 36.6025C91.4609 37.0821 91.0452 37.4728 90.535 37.4728Z" fill="#263544"/>
        <path d="M99.9219 26.6824C99.9157 26.6737 99.8673 26.607 99.7676 26.4987C99.7521 26.4774 99.7357 26.4561 99.7161 26.4368C99.7079 26.4281 99.677 26.3991 99.6287 26.3536C99.3385 26.0654 98.8118 25.6158 97.9425 25.1071V22.1925C97.9425 20.9257 97.4301 19.4877 95.9867 19.2488L79.3787 16.6524L77.5577 10.0436C77.5556 10.0378 77.5546 10.032 77.5525 10.0262C77.0639 8.51767 76.0443 7.78369 74.4353 7.78369H63.7357C62.3457 7.78369 61.2151 8.84646 61.2151 10.1529V26.2057C61.2151 27.5121 62.3457 28.5749 63.7357 28.5749H77.3159C78.1955 28.5749 78.9106 29.247 78.9106 30.0738V33.0716C78.9106 33.3124 79.1174 33.5068 79.3735 33.5068H82.2141C82.3818 33.5068 82.5371 33.4217 82.6184 33.2834L84.5073 30.097C85.1245 29.1184 86.2778 28.3815 87.1925 28.3815H93.3653C94.3488 28.3815 95.7161 29.3166 96.14 30.0748L96.8601 31.4286C96.9383 31.5756 97.0988 31.6694 97.2748 31.6694H99.5381C99.7943 31.6694 100.001 31.475 100.001 31.2342V26.9232C100.001 26.8371 99.9743 26.753 99.9229 26.6814L99.9219 26.6824ZM99.0741 30.8H97.6338V27.8022C97.6338 27.5614 97.427 27.3671 97.1708 27.3671C96.9147 27.3671 96.7079 27.5614 96.7079 27.8022V29.3021C95.9898 28.3941 94.5639 27.5121 93.3643 27.5121H87.1914C85.9342 27.5121 84.5011 28.395 83.7069 29.6599C83.7048 29.6628 83.7027 29.6667 83.7007 29.6696L81.9414 32.6374H80.2624L82.1966 27.0673C82.2758 26.8391 82.1431 26.5935 81.9003 26.519C81.6575 26.4445 81.3962 26.5693 81.3169 26.7975L79.8365 31.0621V30.0757C79.8365 28.7693 78.7058 27.7065 77.3159 27.7065H63.7357C62.856 27.7065 62.141 27.0344 62.141 26.2076V10.1539C62.141 9.34158 62.8313 8.68013 63.6894 8.65692C63.6883 8.67046 63.6842 8.68303 63.6842 8.69754V23.0531C63.6842 23.2185 63.6492 24.4138 64.5124 25.2812C65.0916 25.8633 65.9219 26.1583 66.9774 26.1583H74.1101C74.3663 26.1583 74.5731 25.9639 74.5731 25.7231C74.5731 25.4823 74.3663 25.288 74.1101 25.288H66.9774C66.1914 25.288 65.5916 25.0878 65.1945 24.6913C64.5587 24.0579 64.6091 23.1005 64.6091 23.0928C64.6091 23.0831 64.6091 23.0734 64.6091 23.0638V8.69754C64.6091 8.68303 64.6081 8.66949 64.606 8.65499H74.4342C75.6266 8.65499 76.2943 9.1385 76.6636 10.2719L78.5577 17.1455C78.604 17.3119 78.749 17.4376 78.9301 17.4656L95.8303 20.1076C96.9589 20.2942 97.0165 21.8782 97.0165 22.1934V24.6574C96.5176 24.4495 95.9764 24.2909 95.4178 24.2358C93.3355 24.0298 86.678 23.2843 86.6112 23.2765C86.3581 23.2485 86.1276 23.4187 86.0968 23.6575C86.0669 23.8964 86.248 24.113 86.5021 24.1411C86.569 24.1488 93.2326 24.8944 95.3211 25.1013C97.0381 25.2715 98.6616 26.6844 98.9887 26.9841C99.0227 27.0189 99.0515 27.0489 99.0741 27.0741V30.8V30.8Z" fill="#263544"/>
        <path d="M75.5021 11.8917L75.497 11.8724C75.0464 10.3793 74.2048 9.62207 72.9939 9.62207H68.6729C67.283 9.62207 66.1523 10.6848 66.1523 11.9913V15.2792C66.1523 16.5857 67.283 17.6484 68.6729 17.6484H73.817C74.6153 17.6484 75.4095 17.31 75.89 16.7655C76.2861 16.3168 76.4425 15.7598 76.3293 15.1989L75.5021 11.8917V11.8917ZM75.177 16.2105C74.8725 16.5557 74.3386 16.7781 73.817 16.7781H68.6729C67.7933 16.7781 67.0783 16.106 67.0783 15.2792V11.9913C67.0783 11.1645 67.7933 10.4924 68.6729 10.4924H72.9939C73.4754 10.4924 74.1657 10.6597 74.603 12.1006L75.4209 15.3682C75.4795 15.6757 75.3982 15.959 75.177 16.2095V16.2105Z" fill="#263544"/>
        <path d="M75.36 29.2529H60.288V2.69241C60.288 0.518516 58.5668 0.0369334 58.4937 0.0175928C58.2468 -0.0481655 57.9917 0.0872191 57.9227 0.31834C57.8538 0.549461 57.9968 0.790252 58.2427 0.855043C58.254 0.857944 59.3631 1.1703 59.3631 2.69241V29.2539H58.4371V4.23966C58.4371 2.06577 56.716 1.58419 56.6429 1.56485C56.396 1.49909 56.1388 1.6335 56.0688 1.86463C55.9989 2.09575 56.1398 2.33557 56.3857 2.40133C56.432 2.41487 57.5112 2.74366 57.5112 4.24063V29.2549H35.3096L36.5236 30.0478C38.0555 31.0477 39.2098 32.5138 39.7746 34.1742L39.8775 34.4768H52.6758V37.7164C52.6758 39.0229 53.8065 40.0856 55.1964 40.0856H73.612C75.002 40.0856 76.1326 39.0229 76.1326 37.7164V34.3618C77.146 34.0543 77.8816 33.1617 77.8816 32.1076V31.6241C77.8816 30.7596 77.8487 30.1165 77.4248 29.7094C77.0256 29.3255 76.4166 29.2549 75.361 29.2549L75.36 29.2529ZM75.2057 37.7145C75.2057 38.5413 74.4906 39.2134 73.611 39.2134H72.6336V34.5716C72.6336 34.3308 72.4269 34.1364 72.1707 34.1364C71.9145 34.1364 71.7077 34.3308 71.7077 34.5716V39.2134H64.7118V34.5716C64.7118 34.3308 64.505 34.1364 64.2489 34.1364C63.9927 34.1364 63.7859 34.3308 63.7859 34.5716V39.2134H57.0987V34.5716C57.0987 34.3308 56.8919 34.1364 56.6357 34.1364C56.3795 34.1364 56.1727 34.3308 56.1727 34.5716V39.2134H55.1954C54.3157 39.2134 53.6007 38.5413 53.6007 37.7145V33.4595C53.6007 32.6327 54.3157 31.9606 55.1954 31.9606H59.9793V36.5057C59.9793 36.7465 60.1861 36.9408 60.4423 36.9408C60.6985 36.9408 60.9053 36.7465 60.9053 36.5057V31.9606H67.6954V36.5057C67.6954 36.7465 67.9022 36.9408 68.1583 36.9408C68.4145 36.9408 68.6213 36.7465 68.6213 36.5057V31.9606H73.611C74.4906 31.9606 75.2057 32.6327 75.2057 33.4595V37.7145ZM76.9546 32.1057C76.9546 32.6695 76.6213 33.1597 76.1306 33.415C76.1048 32.1289 74.9855 31.0903 73.611 31.0903H55.1954C53.8055 31.0903 52.6748 32.1531 52.6748 33.4595V33.6046H40.5462C40.039 32.2817 39.1913 31.0826 38.0966 30.1233H75.361C76.0822 30.1233 76.5966 30.1561 76.7633 30.3157C76.9413 30.4869 76.9557 31.0545 76.9557 31.6222V32.1057H76.9546Z" fill="#263544"/>
        <path d="M70.9877 18.7119H66.7696C66.5134 18.7119 66.3066 18.9063 66.3066 19.1471C66.3066 19.3879 66.5134 19.5822 66.7696 19.5822H70.9877C71.2439 19.5822 71.4507 19.3879 71.4507 19.1471C71.4507 18.9063 71.2439 18.7119 70.9877 18.7119Z" fill="#263544"/>
        <path d="M84.5751 19.6326L80.1019 18.9808C80.034 18.9711 79.965 18.9663 79.8961 18.9663C79.2325 18.9663 78.677 19.414 78.5751 20.031C78.5206 20.3627 78.606 20.6944 78.8179 20.9661C79.0288 21.2369 79.3395 21.4148 79.6924 21.4661L84.1657 22.1179C84.2336 22.1275 84.3025 22.1324 84.3714 22.1324C85.035 22.1324 85.5906 21.6846 85.6924 21.0677C85.7469 20.736 85.6615 20.4033 85.4496 20.1326C85.2387 19.8618 84.928 19.6838 84.5751 19.6326ZM84.7768 20.9342C84.7428 21.1412 84.5299 21.2901 84.3066 21.2572L79.8333 20.6054C79.6091 20.5726 79.4548 20.3743 79.4897 20.1645C79.5206 19.9778 79.6945 19.8366 79.8951 19.8366C79.9167 19.8366 79.9383 19.8386 79.9589 19.8415L84.4321 20.4933C84.5412 20.5087 84.6358 20.5638 84.7017 20.647C84.7665 20.7302 84.7932 20.8327 84.7757 20.9342H84.7768Z" fill="#263544"/>
        <path d="M41.9754 42.3079H36.0742C37.8232 40.9502 38.9404 38.8962 38.9404 36.6024C38.9404 32.5234 35.4096 29.2046 31.0701 29.2046C26.7306 29.2046 23.1997 32.5234 23.1997 36.6024C23.1997 38.8962 24.316 40.9502 26.066 42.3079H23.6627C23.4065 42.3079 23.1997 42.5023 23.1997 42.7431C23.1997 42.9838 23.4065 43.1782 23.6627 43.1782H27.3664C27.3962 43.1782 27.426 43.1753 27.4538 43.1695C28.5372 43.6985 29.7666 44.0002 31.0701 44.0002C32.3736 44.0002 33.5896 43.7023 34.6688 43.1782H41.9754C42.2316 43.1782 42.4384 42.9838 42.4384 42.7431C42.4384 42.5023 42.2316 42.3079 41.9754 42.3079ZM24.1256 36.6024C24.1256 33.0031 27.2409 30.0749 31.0701 30.0749C34.8993 30.0749 38.0145 33.0031 38.0145 36.6024C38.0145 40.2017 34.8993 43.1299 31.0701 43.1299C27.2409 43.1299 24.1256 40.2017 24.1256 36.6024Z" fill="#263544"/>
        <path d="M98.9711 42.3079H95.539C97.288 40.9502 98.4053 38.8962 98.4053 36.6024C98.4053 32.5234 94.8744 29.2046 90.5349 29.2046C86.1954 29.2046 82.6645 32.5234 82.6645 36.6024C82.6645 38.8962 83.7808 40.9502 85.5308 42.3079H79.5267C79.2705 42.3079 79.0637 42.5023 79.0637 42.7431C79.0637 42.9838 79.2705 43.1782 79.5267 43.1782H86.9341C86.9341 43.1782 86.9351 43.1782 86.9361 43.1782C88.0154 43.7023 89.2386 44.0002 90.5349 44.0002C91.8312 44.0002 93.0545 43.7023 94.1337 43.1782H98.9711C99.2273 43.1782 99.4341 42.9838 99.4341 42.7431C99.4341 42.5023 99.2273 42.3079 98.9711 42.3079ZM83.5905 36.6024C83.5905 33.0031 86.7057 30.0749 90.5349 30.0749C94.3641 30.0749 97.4794 33.0031 97.4794 36.6024C97.4794 40.2017 94.3641 43.1299 90.5349 43.1299C86.7057 43.1299 83.5905 40.2017 83.5905 36.6024Z" fill="#263544"/>
    </g>
    <defs>
        <clipPath id="clip0_153_359">
            <rect width="100" height="44" fill="white"/>
        </clipPath>
    </defs>
</svg>
