<svg width="106" height="43" viewBox="0 0 106 43" fill="none" xmlns="http://www.w3.org/2000/svg">
    <g clip-path="url(#clip0_153_360)">
        <path d="M13.9583 2.67197L16.4288 1.45752H28.2871L47.0628 1.70041L61.7622 1.45752L66.8268 12.6305L29.0283 13.7235L11.7349 13.1162L13.9583 2.67197Z" fill="#767F89"/>
        <path d="M18.4669 7.52967C18.3137 7.52967 18.1606 7.46773 18.0506 7.34629C17.8468 7.1204 17.8678 6.7755 18.0963 6.57511L23.8513 1.54608C24.0811 1.3457 24.4319 1.36634 24.6357 1.59101C24.8395 1.8169 24.8185 2.16181 24.59 2.36219L18.835 7.39122C18.7288 7.48352 18.5979 7.52967 18.4657 7.52967H18.4669Z" fill="#A8AEB4"/>
        <path d="M16.0704 15.2525C15.9172 15.2525 15.7641 15.1905 15.6554 15.0691C15.4516 14.8432 15.4726 14.4983 15.7011 14.2979L25.7066 5.55389C25.9363 5.35351 26.2871 5.37415 26.4909 5.59883C26.6948 5.82471 26.6738 6.16962 26.4452 6.37L16.4398 15.114C16.3335 15.2063 16.2026 15.2525 16.0704 15.2525Z" fill="#A8AEB4"/>
        <path d="M52.5597 7.52967C52.4065 7.52967 52.2533 7.46773 52.1434 7.34629C51.9396 7.1204 51.9606 6.7755 52.1891 6.57511L57.9441 1.54608C58.1739 1.3457 58.5247 1.36634 58.7285 1.59101C58.9323 1.8169 58.9113 2.16181 58.6828 2.36219L52.9278 7.39122C52.8216 7.48352 52.6906 7.52967 52.5585 7.52967H52.5597Z" fill="#A8AEB4"/>
        <path d="M50.1632 15.2525C50.01 15.2525 49.8569 15.1905 49.7469 15.0691C49.5431 14.8432 49.5641 14.4983 49.7926 14.2979L59.7981 5.55389C60.0279 5.35351 60.3787 5.37415 60.5825 5.59883C60.7863 5.82471 60.7653 6.16962 60.5368 6.37L50.5313 15.114C50.4251 15.2063 50.2941 15.2525 50.162 15.2525H50.1632Z" fill="#A8AEB4"/>
        <path d="M26.4466 15.1309C26.2935 15.1309 26.1403 15.069 26.0316 14.9475C25.8278 14.7216 25.8488 14.3767 26.0773 14.1763L36.0828 5.43231C36.3125 5.23193 36.6633 5.25257 36.8672 5.47724C37.071 5.70313 37.05 6.04804 36.8215 6.24842L26.816 14.9925C26.7097 15.0848 26.5788 15.1309 26.4466 15.1309Z" fill="#A8AEB4"/>
        <path d="M39.9107 8.57301C39.7575 8.57301 39.6056 8.51107 39.4956 8.38963C39.2918 8.16374 39.3116 7.81884 39.5413 7.61845L45.7781 2.15343C46.0078 1.95305 46.3587 1.97248 46.5625 2.19837C46.7663 2.42425 46.7465 2.76916 46.5168 2.96954L40.28 8.43456C40.1738 8.52686 40.0416 8.57301 39.9107 8.57301Z" fill="#A8AEB4"/>
        <path d="M8.27618 4.37207H2.34701C1.3237 4.37207 0.494141 5.18766 0.494141 6.19374V22.2245C0.494141 23.2306 1.3237 24.0461 2.34701 24.0461H8.27618C9.29949 24.0461 10.129 23.2306 10.129 22.2245V6.19374C10.129 5.18766 9.29949 4.37207 8.27618 4.37207Z" fill="#68727C"/>
        <path d="M94.0181 14.5129C94.0181 13.5073 93.1881 12.6912 92.1653 12.6912L69.0069 11.5071L62.1513 0.607422H13.7273C12.7045 0.607422 11.9288 1.39317 11.9288 2.39873L8.77148 16.224V27.5075C8.77148 28.513 9.4941 29.3899 10.5169 29.3899H10.6738C12.266 25.6251 14.508 20.5875 14.9638 19.5528C15.6839 17.9133 16.9673 17.7312 17.9901 17.7312H28.1191C29.1419 17.7312 29.9312 17.9947 31.0219 19.5528C31.7124 20.539 35.2329 25.6251 37.7293 29.3899H73.4242C75.0164 25.6251 77.2584 20.5875 77.7142 19.5528C78.4343 17.9133 79.7177 17.7312 80.7405 17.7312H90.8695C91.8923 17.7312 92.6816 17.9643 93.7723 19.5225C93.9712 19.8054 94.4048 20.4224 94.9804 21.264L94.0194 14.5129H94.0181ZM29.1518 10.2623C29.1518 11.2679 28.2142 12.1447 27.1914 12.1447H16.8154C15.7926 12.1447 14.7772 11.4063 14.9625 10.2927L16.0742 4.47787C16.2595 3.40551 17.2539 2.67077 18.2767 2.67077H27.1914C28.2142 2.67077 29.1518 3.42616 29.1518 4.43172V10.2611V10.2623ZM44.7159 10.323C44.7159 11.3286 43.8858 12.1447 42.863 12.1447H34.0928C33.07 12.1447 32.2399 11.3286 32.2399 10.323V4.49366C32.2399 3.4881 33.07 2.67199 34.0928 2.67199H42.863C43.8858 2.67199 44.7159 3.4881 44.7159 4.49366V10.323ZM62.7665 12.1447H51.2787C50.2559 12.1447 49.5333 11.2679 49.5333 10.2623V4.43294C49.5333 3.42737 50.2559 2.67199 51.2787 2.67199H59.8636C60.8864 2.67199 61.7165 3.43102 62.1488 4.4633L64.6193 10.3072C64.8874 11.2581 63.7893 12.1435 62.7665 12.1435V12.1447Z" fill="#F26A21"/>
        <path d="M93.6748 13.4599C93.3388 12.996 92.7892 12.6912 92.1654 12.6912L69.007 11.5071L62.1514 0.607422H13.7274C12.7046 0.607422 11.8992 1.39317 11.8992 2.39873L8.82715 15.7261C11.457 16.4888 14.2696 17.1762 17.2392 17.7785C17.4961 17.7421 17.7506 17.7324 17.989 17.7324H28.118C29.1407 17.7324 29.9301 17.9959 31.0208 19.554C31.0739 19.6293 31.1443 19.7314 31.2283 19.8516C36.5287 20.3762 42.1182 20.6555 47.8954 20.6555C66.0857 20.6555 82.4292 17.8757 93.6748 13.4599ZM49.5334 4.43294C49.5334 3.42737 50.256 2.67199 51.2788 2.67199H59.8637C60.8865 2.67199 61.7166 3.43102 62.1489 4.4633L64.6194 10.3072C64.8875 11.2581 63.7893 12.1435 62.7666 12.1435H51.2788C50.256 12.1435 49.5334 11.2666 49.5334 10.2611V4.43172V4.43294ZM29.1519 10.2623C29.1519 11.2679 28.2143 12.1447 27.1915 12.1447H16.8155C15.7927 12.1447 14.7773 11.4063 14.9626 10.2927L16.0743 4.47787C16.2596 3.40551 17.254 2.67077 18.2768 2.67077H27.1915C28.2143 2.67077 29.1519 3.42616 29.1519 4.43172V10.2611V10.2623ZM44.7159 10.323C44.7159 11.3286 43.8858 12.1447 42.8631 12.1447H34.0928C33.07 12.1447 32.24 11.3286 32.24 10.323V4.49366C32.24 3.4881 33.07 2.67199 34.0928 2.67199H42.8631C43.8858 2.67199 44.7159 3.4881 44.7159 4.49366V10.323Z" fill="#F58C55"/>
        <path d="M31.6867 39.2377C35.8835 35.1115 35.8835 28.4217 31.6867 24.2955C27.4899 20.1694 20.6855 20.1694 16.4887 24.2955C12.2918 28.4217 12.2918 35.1115 16.4887 39.2377C20.6855 43.3639 27.4899 43.3639 31.6867 39.2377Z" fill="#68727C"/>
        <path d="M93.9421 39.2377C98.1389 35.1115 98.1389 28.4217 93.9421 24.2955C89.7452 20.1694 82.9408 20.1694 78.744 24.2955C74.5472 28.4217 74.5472 35.1115 78.744 39.2377C82.9408 43.3639 89.7452 43.3639 93.9421 39.2377Z" fill="#68727C"/>
        <path d="M23.9045 37.7693C27.2473 37.7693 29.9572 35.105 29.9572 31.8185C29.9572 28.5319 27.2473 25.8677 23.9045 25.8677C20.5617 25.8677 17.8518 28.5319 17.8518 31.8185C17.8518 35.105 20.5617 37.7693 23.9045 37.7693Z" fill="#BDC2C7"/>
        <path d="M86.5312 37.7693C89.874 37.7693 92.5839 35.105 92.5839 31.8185C92.5839 28.5319 89.874 25.8677 86.5312 25.8677C83.1884 25.8677 80.4785 28.5319 80.4785 31.8185C80.4785 35.105 83.1884 37.7693 86.5312 37.7693Z" fill="#BDC2C7"/>
        <path d="M9.28778 14.7349L8.62939 16.5978L8.71092 20.727L12.0881 20.6456L12.3067 14.8162L9.28778 14.7349Z" fill="#FBD4BF"/>
        <path d="M90.7905 12.5088V17.9738L93.0671 18.4596L94.7816 20.2412L93.6822 13.4597L92.9053 13.0346L90.7905 12.5088Z" fill="white"/>
        <path d="M105.444 39.9553H94.0798C93.7722 39.9553 93.5239 39.7112 93.5239 39.4088C93.5239 39.1064 93.7722 38.8623 94.0798 38.8623H105.444C105.752 38.8623 106 39.1064 106 39.4088C106 39.7112 105.752 39.9553 105.444 39.9553Z" fill="#263544"/>
        <path d="M23.8907 25.3647C20.2826 25.3647 17.3477 28.2503 17.3477 31.7977C17.3477 35.3451 20.2826 38.2306 23.8907 38.2306C27.4989 38.2306 30.4338 35.3439 30.4338 31.7977C30.4338 28.2515 27.4989 25.3647 23.8907 25.3647ZM23.8907 37.1388C20.8953 37.1388 18.4594 34.7427 18.4594 31.7989C18.4594 28.8551 20.8965 26.459 23.8907 26.459C26.885 26.459 29.3221 28.8551 29.3221 31.7989C29.3221 34.7427 26.885 37.1388 23.8907 37.1388Z" fill="#263544"/>
        <path d="M95.5288 21.1727L94.574 14.4714C94.5518 13.1889 93.4882 12.1518 92.1813 12.1433L69.3268 10.9446L62.6244 0.259892C62.5231 0.0983704 62.344 0 62.1513 0H13.7273C12.4216 0 11.3544 1.02742 11.3198 2.3026L10.5873 5.45773C10.2908 4.4801 9.36933 3.76479 8.27984 3.76479H2.34943C1.02155 3.76479 0 4.82744 0 6.13297V22.1637C0 23.4692 1.02155 24.5319 2.34943 24.5319H8.15261V27.5073C8.15261 28.8128 9.18775 29.8754 10.5156 29.8754H10.6725C10.8949 29.8754 11.0962 29.7455 11.1839 29.5439C13.7236 23.7133 15.1268 20.4963 15.4727 19.7081C16.0174 18.4693 16.8722 18.2155 17.9889 18.2155H28.1179C28.8998 18.2155 29.5334 18.3297 30.5624 19.8004C31.2319 20.7561 34.577 25.6735 37.2661 29.6313C37.3686 29.7831 37.5428 29.8742 37.7281 29.8742H73.4229C73.6453 29.8742 73.8466 29.7443 73.9343 29.5427C76.474 23.7121 77.8772 20.495 78.2231 19.7069C78.7678 18.4681 79.6226 18.2143 80.7393 18.2143H90.8683C91.6502 18.2143 92.2838 18.3285 93.3128 19.7992C93.4981 20.0627 93.8909 20.6359 94.5172 21.5516C94.6617 21.7629 94.9359 21.8479 95.1768 21.7569C95.4189 21.6658 95.5647 21.4229 95.5288 21.1703V21.1727ZM8.17361 16.1024C8.16496 16.1425 8.15261 16.1825 8.15261 16.2238V23.4389H2.34943C1.63423 23.4389 1.11172 22.8669 1.11172 22.1637V6.13297C1.11172 5.4298 1.63423 4.8578 2.34943 4.8578H8.27861C8.99381 4.8578 9.6349 5.4298 9.6349 6.13297V9.8091L8.17361 16.1024ZM90.8683 17.1237H80.7393C79.6275 17.1237 78.0501 17.3472 77.2028 19.2745C76.8631 20.0493 75.5055 23.1595 73.0573 28.7824H38.0258C35.365 24.8658 32.1373 20.1234 31.479 19.1822C30.2795 17.4686 29.3037 17.1237 28.1179 17.1237H17.9889C16.8771 17.1237 15.2997 17.3472 14.4524 19.2745C14.1127 20.0481 12.7811 23.1547 10.3365 28.7667C9.71766 28.6707 9.26433 28.1424 9.26433 27.5073V16.2845L9.47432 15.1806H11.2407V19.917H10.0833C9.77572 19.917 9.52744 20.1611 9.52744 20.4635C9.52744 20.7659 9.77572 21.01 10.0833 21.01H12.3524V15.1806H19.2241C19.5317 15.1806 19.78 14.9365 19.78 14.6341C19.78 14.3317 19.5317 14.0876 19.2241 14.0876H9.72755L12.4154 2.48962C12.4241 2.44954 12.429 2.40947 12.429 2.36818C12.429 1.66501 13.0108 1.093 13.726 1.093H46.5366C46.5279 1.13187 46.5675 1.17316 46.5675 1.21445V21.9415C46.5675 23.2956 46.3439 24.1056 45.8943 24.5707C45.4261 25.0553 44.5417 25.2812 43.136 25.2812C42.8296 25.2812 42.5739 25.5253 42.5739 25.8277C42.5739 26.1301 42.8432 26.3742 43.1495 26.3742C46.4785 26.3742 47.678 25.2144 47.678 21.9415V1.21445C47.678 1.17316 47.6261 1.13187 47.6174 1.093H61.8388L68.5313 11.7632C68.6264 11.9162 68.8154 12.0121 68.9983 12.0218L90.1716 13.1306V15.9081C90.1716 16.2105 90.4199 16.4546 90.7274 16.4546C91.035 16.4546 91.2833 16.2105 91.2833 15.9081V13.1889L92.1579 13.2363C92.1677 13.2363 92.1665 13.2363 92.1764 13.2363C92.8916 13.2363 93.4672 13.8083 93.4672 14.5115C93.4672 14.537 93.4672 14.5625 93.4697 14.5867L94.0972 18.9952C92.9571 17.4419 92.0084 17.1225 90.8683 17.1225V17.1237Z" fill="#263544"/>
        <path d="M48.8701 15.1804H54.0581C54.3657 15.1804 54.614 14.9363 54.614 14.6339C54.614 14.3315 54.3657 14.0874 54.0581 14.0874H48.8701C48.5625 14.0874 48.3142 14.3315 48.3142 14.6339C48.3142 14.9363 48.5625 15.1804 48.8701 15.1804Z" fill="#263544"/>
        <path d="M38.1233 14.0874H32.9353C32.6277 14.0874 32.3794 14.3315 32.3794 14.6339C32.3794 14.9363 32.6277 15.1804 32.9353 15.1804H38.1233C38.4309 15.1804 38.6791 14.9363 38.6791 14.6339C38.6791 14.3315 38.4309 14.0874 38.1233 14.0874Z" fill="#263544"/>
        <path d="M64.4341 25.0178H54.1816C53.874 25.0178 53.6257 25.2619 53.6257 25.5643C53.6257 25.8667 53.874 26.1108 54.1816 26.1108H64.4341C65.7015 26.1108 66.7206 25.7404 67.416 25.0093C68.4536 23.9187 68.4326 22.4176 68.4326 22.21V14.6949C68.4326 14.3925 68.1843 14.1484 67.8767 14.1484C67.5692 14.1484 67.3209 14.3925 67.3209 14.6949V22.2245C67.3209 22.2355 67.2987 22.2476 67.2987 22.2585C67.2987 22.2707 67.3505 23.4718 66.5859 24.2684C66.1091 24.7652 65.3766 25.0178 64.4329 25.0178H64.4341Z" fill="#263544"/>
        <path d="M45.21 4.43263C45.21 3.12467 44.1316 2.06445 42.8013 2.06445H34.031C32.7007 2.06445 31.6223 3.12467 31.6223 4.43263V10.262C31.6223 11.5699 32.7007 12.6302 34.031 12.6302H42.8013C44.1316 12.6302 45.21 11.5699 45.21 10.262V4.43263ZM44.0983 10.262C44.0983 10.9664 43.5177 11.5372 42.8013 11.5372H34.031C33.3146 11.5372 32.734 10.9664 32.734 10.262V4.43263C32.734 3.72825 33.3146 3.15746 34.031 3.15746H42.8013C43.5177 3.15746 44.0983 3.72825 44.0983 4.43263V10.262Z" fill="#263544"/>
        <path d="M16.8153 12.6302H27.1913C28.5192 12.6302 29.6458 11.5675 29.6458 10.262V4.43263C29.6458 3.1271 28.5192 2.06445 27.1913 2.06445H18.2766C16.9326 2.06445 15.7505 3.0433 15.5269 4.33183L14.4152 10.1612C14.4152 10.1612 14.414 10.1697 14.4127 10.1733C14.3139 10.7684 14.472 11.3428 14.8587 11.7898C15.3132 12.3156 16.0445 12.6289 16.8141 12.6289L16.8153 12.6302ZM15.5096 10.3555L16.6214 4.52371C16.7535 3.7574 17.4811 3.15746 18.2766 3.15746H27.1913C27.9066 3.15746 28.5341 3.72946 28.5341 4.43263V10.262C28.5341 10.9652 27.9066 11.5372 27.1913 11.5372H16.8153C16.3743 11.5372 15.9494 11.3635 15.7073 11.083C15.5319 10.8801 15.4652 10.6348 15.5109 10.3555H15.5096Z" fill="#263544"/>
        <path d="M51.2788 12.6302H62.7665C63.5509 12.6302 64.3588 12.2415 64.8245 11.6392C65.1839 11.1753 65.3013 10.6348 65.1555 10.1163C65.1493 10.0944 65.1419 10.0725 65.1333 10.0519L62.664 4.22496C62.1057 2.89271 61.0335 2.06445 59.865 2.06445H51.28C49.9521 2.06445 48.917 3.1271 48.917 4.43263V10.262C48.917 11.5675 49.9521 12.6302 51.28 12.6302H51.2788ZM50.0275 4.43263C50.0275 3.72946 50.5636 3.15746 51.2788 3.15746H59.8637C60.7111 3.15746 61.3349 3.92377 61.6351 4.64273L64.0895 10.4357C64.1303 10.6142 64.0796 10.7963 63.9388 10.9773C63.6831 11.3064 63.2014 11.5372 62.7653 11.5372H51.2775C50.5623 11.5372 50.0262 10.9652 50.0262 10.262V4.43263H50.0275Z" fill="#263544"/>
        <path d="M42.8172 38.8625H32.7277C34.3261 36.9339 35.2859 34.4734 35.2859 31.798C35.2859 25.6213 30.1745 20.5947 23.8908 20.5947C17.6071 20.5947 12.4956 25.6201 12.4956 31.798C12.4956 34.4747 13.4554 36.9339 15.0538 38.8625H4.64814C4.34057 38.8625 4.09229 39.1066 4.09229 39.409C4.09229 39.7114 4.34057 39.9555 4.64814 39.9555H16.0124C16.0371 39.9555 16.0593 39.9518 16.0828 39.9482C18.1234 41.8391 20.8718 43.0001 23.8908 43.0001C26.9097 43.0001 29.652 41.8415 31.6913 39.9555H42.8159C43.1235 39.9555 43.3718 39.7114 43.3718 39.409C43.3718 39.1066 43.1235 38.8625 42.8159 38.8625H42.8172ZM13.6086 31.798C13.6086 26.2237 18.221 21.6877 23.892 21.6877C29.563 21.6877 34.1754 26.2225 34.1754 31.798C34.1754 34.59 33.018 37.1209 31.1515 38.9523C31.096 38.9876 31.0478 39.0337 31.0083 39.0859C29.1591 40.8311 26.6528 41.9083 23.892 41.9083C18.2222 41.9083 13.6086 37.3736 13.6086 31.798Z" fill="#263544"/>
        <path d="M23.9021 33.2358C23.5945 33.2358 23.3462 33.4799 23.3462 33.7823V35.4413C23.3462 35.7437 23.5945 35.9878 23.9021 35.9878C24.2096 35.9878 24.4579 35.7437 24.4579 35.4413V33.7823C24.4579 33.4799 24.2096 33.2358 23.9021 33.2358Z" fill="#263544"/>
        <path d="M25.7202 32.8009C25.5027 32.5872 25.1507 32.5872 24.9345 32.8009C24.7171 33.0147 24.7171 33.3608 24.9345 33.5733L26.1278 34.7465C26.2365 34.8534 26.3785 34.9068 26.5206 34.9068C26.6626 34.9068 26.8047 34.8534 26.9134 34.7465C27.1308 34.5327 27.1308 34.1866 26.9134 33.9741L25.7202 32.8009Z" fill="#263544"/>
        <path d="M27.604 31.2114H25.9167C25.6091 31.2114 25.3608 31.4555 25.3608 31.7579C25.3608 32.0603 25.6091 32.3044 25.9167 32.3044H27.604C27.9116 32.3044 28.1599 32.0603 28.1599 31.7579C28.1599 31.4555 27.9116 31.2114 27.604 31.2114Z" fill="#263544"/>
        <path d="M25.3103 30.898C25.4523 30.898 25.5944 30.8446 25.7031 30.7377L26.8963 29.5645C27.1137 29.3508 27.1137 29.0047 26.8963 28.7921C26.6789 28.5784 26.3269 28.5784 26.1107 28.7921L24.9174 29.9653C24.7 30.179 24.7 30.5252 24.9174 30.7377C25.0261 30.8446 25.1682 30.898 25.3103 30.898Z" fill="#263544"/>
        <path d="M23.9021 30.3198C24.2096 30.3198 24.4579 30.0757 24.4579 29.7733V28.1144C24.4579 27.812 24.2096 27.5679 23.9021 27.5679C23.5945 27.5679 23.3462 27.812 23.3462 28.1144V29.7733C23.3462 30.0757 23.5945 30.3198 23.9021 30.3198Z" fill="#263544"/>
        <path d="M22.0331 30.7558C22.1418 30.8626 22.2838 30.9161 22.4259 30.9161C22.5679 30.9161 22.71 30.8626 22.8187 30.7558C23.0361 30.542 23.0361 30.1959 22.8187 29.9834L21.6254 28.8102C21.408 28.5965 21.056 28.5965 20.8398 28.8102C20.6224 29.024 20.6224 29.3701 20.8398 29.5826L22.0331 30.7558Z" fill="#263544"/>
        <path d="M22.3938 31.7579C22.3938 31.4555 22.1455 31.2114 21.8379 31.2114H20.1506C19.843 31.2114 19.5947 31.4555 19.5947 31.7579C19.5947 32.0603 19.843 32.3044 20.1506 32.3044H21.8379C22.1455 32.3044 22.3938 32.0603 22.3938 31.7579Z" fill="#263544"/>
        <path d="M22.0504 32.8181L20.8571 33.9912C20.6397 34.205 20.6397 34.5511 20.8571 34.7636C20.9658 34.8705 21.1079 34.9239 21.25 34.9239C21.392 34.9239 21.5341 34.8705 21.6428 34.7636L22.836 33.5904C23.0534 33.3767 23.0534 33.0306 22.836 32.8181C22.6186 32.6055 22.2666 32.6043 22.0504 32.8181Z" fill="#263544"/>
        <path d="M86.5177 20.5945C80.2353 20.5945 75.1226 25.6199 75.1226 31.7978C75.1226 34.4744 76.0824 36.9337 77.6808 38.8622H67.2739C66.9663 38.8622 66.718 39.1063 66.718 39.4087C66.718 39.7111 66.9663 39.9552 67.2739 39.9552H78.6381C78.6616 39.9552 78.6851 39.9516 78.7085 39.9479C80.7492 41.8388 83.4976 42.9998 86.5165 42.9998C92.799 42.9998 97.9116 37.9745 97.9116 31.7966C97.9116 25.6187 92.8002 20.5933 86.5165 20.5933L86.5177 20.5945ZM86.5177 41.9068C80.848 41.9068 76.2343 37.3721 76.2343 31.7966C76.2343 26.221 80.8467 21.6863 86.5177 21.6863C92.1888 21.6863 96.8012 26.221 96.8012 31.7966C96.8012 37.3721 92.1888 41.9068 86.5177 41.9068Z" fill="#263544"/>
        <path d="M86.5177 25.3647C82.9095 25.3647 79.9746 28.2503 79.9746 31.7977C79.9746 35.3451 82.9095 38.2306 86.5177 38.2306C90.1258 38.2306 93.0608 35.3439 93.0608 31.7977C93.0608 28.2515 90.1258 25.3647 86.5177 25.3647ZM86.5177 37.1388C83.5222 37.1388 81.0863 34.7427 81.0863 31.7989C81.0863 28.8551 83.5235 26.459 86.5177 26.459C89.5119 26.459 91.9491 28.8551 91.9491 31.7989C91.9491 34.7427 89.5119 37.1388 86.5177 37.1388Z" fill="#263544"/>
        <path d="M86.5288 33.2358C86.2212 33.2358 85.9729 33.4799 85.9729 33.7823V35.4413C85.9729 35.7437 86.2212 35.9878 86.5288 35.9878C86.8363 35.9878 87.0846 35.7437 87.0846 35.4413V33.7823C87.0846 33.4799 86.8363 33.2358 86.5288 33.2358Z" fill="#263544"/>
        <path d="M88.3471 32.8009C88.1297 32.5872 87.7777 32.5872 87.5615 32.8009C87.3441 33.0147 87.3441 33.3608 87.5615 33.5733L88.7547 34.7465C88.8634 34.8534 89.0055 34.9068 89.1475 34.9068C89.2896 34.9068 89.4316 34.8534 89.5403 34.7465C89.7578 34.5327 89.7578 34.1866 89.5403 33.9741L88.3471 32.8009Z" fill="#263544"/>
        <path d="M88.5434 31.2114C88.2358 31.2114 87.9875 31.4555 87.9875 31.7579C87.9875 32.0603 88.2358 32.3044 88.5434 32.3044H90.2308C90.5383 32.3044 90.7866 32.0603 90.7866 31.7579C90.7866 31.4555 90.5383 31.2114 90.2308 31.2114H88.5434Z" fill="#263544"/>
        <path d="M87.937 30.898C88.079 30.898 88.2211 30.8446 88.3298 30.7377L89.523 29.5645C89.7404 29.3508 89.7404 29.0047 89.523 28.7921C89.3056 28.5784 88.9536 28.5784 88.7374 28.7921L87.5442 29.9653C87.3268 30.179 87.3268 30.5252 87.5442 30.7377C87.6529 30.8446 87.7949 30.898 87.937 30.898Z" fill="#263544"/>
        <path d="M86.5288 30.3198C86.8363 30.3198 87.0846 30.0757 87.0846 29.7733V28.1144C87.0846 27.812 86.8363 27.5679 86.5288 27.5679C86.2212 27.5679 85.9729 27.812 85.9729 28.1144V29.7733C85.9729 30.0757 86.2212 30.3198 86.5288 30.3198Z" fill="#263544"/>
        <path d="M84.6612 30.7558C84.7699 30.8626 84.912 30.9161 85.054 30.9161C85.1961 30.9161 85.3381 30.8626 85.4468 30.7558C85.6643 30.542 85.6643 30.1959 85.4468 29.9834L84.2536 28.8102C84.0362 28.5965 83.6842 28.5965 83.468 28.8102C83.2506 29.024 83.2506 29.3701 83.468 29.5826L84.6612 30.7558Z" fill="#263544"/>
        <path d="M85.0205 31.7579C85.0205 31.4555 84.7722 31.2114 84.4646 31.2114H82.7773C82.4697 31.2114 82.2214 31.4555 82.2214 31.7579C82.2214 32.0603 82.4697 32.3044 82.7773 32.3044H84.4646C84.7722 32.3044 85.0205 32.0603 85.0205 31.7579Z" fill="#263544"/>
        <path d="M84.6771 32.818L83.4839 33.9912C83.2665 34.2049 83.2665 34.551 83.4839 34.7636C83.5926 34.8704 83.7346 34.9239 83.8767 34.9239C84.0187 34.9239 84.1608 34.8704 84.2695 34.7636L85.4627 33.5904C85.6801 33.3767 85.6801 33.0306 85.4627 32.818C85.2453 32.6043 84.8933 32.6043 84.6771 32.818Z" fill="#263544"/>
    </g>
    <defs>
        <clipPath id="clip0_153_360">
            <rect width="106" height="43" fill="white"/>
        </clipPath>
    </defs>
</svg>
